<svg width="23" height="30" viewBox="0 0 23 30" fill="none" xmlns="http://www.w3.org/2000/svg">
<path d="M1.48828 8.59033H3.7105L4.15495 10.8126M4.15495 10.8126H21.4883L17.0438 19.7014H5.93273M4.15495 10.8126L5.93273 19.7014M5.93273 19.7014L3.38495 22.2492C2.68495 22.9492 3.1805 24.1459 4.1705 24.1459H17.0438M17.0438 24.1459C16.4545 24.1459 15.8892 24.38 15.4725 24.7968C15.0557 25.2135 14.8216 25.7787 14.8216 26.3681C14.8216 26.9575 15.0557 27.5227 15.4725 27.9395C15.8892 28.3562 16.4545 28.5903 17.0438 28.5903C17.6332 28.5903 18.1984 28.3562 18.6152 27.9395C19.0319 27.5227 19.2661 26.9575 19.2661 26.3681C19.2661 25.7787 19.0319 25.2135 18.6152 24.7968C18.1984 24.38 17.6332 24.1459 17.0438 24.1459ZM8.15495 26.3681C8.15495 26.9575 7.92082 27.5227 7.50407 27.9395C7.08733 28.3562 6.5221 28.5903 5.93273 28.5903C5.34336 28.5903 4.77812 28.3562 4.36138 27.9395C3.94463 27.5227 3.7105 26.9575 3.7105 26.3681C3.7105 25.7787 3.94463 25.2135 4.36138 24.7968C4.77812 24.38 5.34336 24.1459 5.93273 24.1459C6.5221 24.1459 7.08733 24.38 7.50407 24.7968C7.92082 25.2135 8.15495 25.7787 8.15495 26.3681Z" stroke="#A51414" stroke-width="2" stroke-linecap="round" stroke-linejoin="round"/>
<rect x="5.48828" y="0.590332" width="15" height="15" rx="7.5" fill="#A51414"/>
<path d="M14.0883 3.88233V12.0903H12.9843V5.25033L11.3883 5.94633L10.9683 5.01033L13.3803 3.88233H14.0883Z" fill="white"/>
</svg>
