<svg width="26" height="31" viewBox="0 0 26 31" fill="none" xmlns="http://www.w3.org/2000/svg">
<path d="M5.09241 17.7972H8.82335C8.93214 17.7972 9.03646 17.7524 9.11338 17.6728C9.1903 17.5931 9.23351 17.485 9.23351 17.3724C9.23351 17.2597 9.1903 17.1517 9.11338 17.072C9.03646 16.9923 8.93214 16.9476 8.82335 16.9476H5.09241C4.98363 16.9476 4.8793 16.9923 4.80239 17.072C4.72547 17.1517 4.68225 17.2597 4.68225 17.3724C4.68225 17.485 4.72547 17.5931 4.80239 17.6728C4.8793 17.7524 4.98363 17.7972 5.09241 17.7972ZM11.2843 21.1956H5.09241C4.98363 21.1956 4.8793 21.2404 4.80239 21.32C4.72547 21.3997 4.68225 21.5078 4.68225 21.6204C4.68225 21.7331 4.72547 21.8411 4.80239 21.9208C4.8793 22.0005 4.98363 22.0452 5.09241 22.0452H11.2843C11.3931 22.0452 11.4974 22.0005 11.5743 21.9208C11.6512 21.8411 11.6944 21.7331 11.6944 21.6204C11.6944 21.5078 11.6512 21.3997 11.5743 21.32C11.4974 21.2404 11.3931 21.1956 11.2843 21.1956ZM8.82335 23.7444H5.09241C4.98363 23.7444 4.8793 23.7892 4.80239 23.8689C4.72547 23.9485 4.68225 24.0566 4.68225 24.1692C4.68225 24.2819 4.72547 24.39 4.80239 24.4696C4.8793 24.5493 4.98363 24.5941 5.09241 24.5941H8.82335C8.93214 24.5941 9.03646 24.5493 9.11338 24.4696C9.1903 24.39 9.23351 24.2819 9.23351 24.1692C9.23351 24.0566 9.1903 23.9485 9.11338 23.8689C9.03646 23.7892 8.93214 23.7444 8.82335 23.7444ZM21.8552 6.90943C21.7859 6.47684 21.6157 6.06833 21.3592 5.71948C21.1026 5.37063 20.7677 5.09203 20.3834 4.90792C20.5183 4.70153 20.5964 4.461 20.6093 4.21213C20.6222 3.96326 20.5694 3.71545 20.4566 3.49529C20.3438 3.27514 20.1753 3.09096 19.9691 2.96251C19.7628 2.83405 19.5267 2.76619 19.2861 2.76619C19.0455 2.76619 18.8094 2.83405 18.6032 2.96251C18.397 3.09096 18.2284 3.27514 18.1156 3.49529C18.0028 3.71545 17.95 3.96326 17.9629 4.21213C17.9758 4.461 18.0539 4.70153 18.1888 4.90792C17.8046 5.09203 17.4696 5.37064 17.2131 5.71948C16.9565 6.06833 16.7862 6.47683 16.717 6.90943L16.2626 9.70918C16.2459 9.81184 16.2662 9.91727 16.3196 10.0054C16.3731 10.0936 16.4559 10.1584 16.5524 10.1875C17.0145 10.3266 17.4859 10.4302 17.9627 10.4976C17.9793 10.8495 18.126 11.1814 18.3724 11.4243C18.6187 11.6673 18.9459 11.8028 19.2861 11.8028C19.6263 11.8028 19.9535 11.6673 20.1998 11.4243C20.4462 11.1814 20.5929 10.8495 20.6096 10.4976C21.0863 10.4302 21.5577 10.3266 22.0198 10.1875C22.1163 10.1584 22.1991 10.0936 22.2526 10.0055C22.306 9.91732 22.3263 9.8119 22.3097 9.70923L21.8552 6.90943ZM19.2861 3.61674C19.4159 3.61657 19.5408 3.66822 19.6348 3.76096C19.7288 3.8537 19.7847 3.98039 19.7908 4.1147C19.7969 4.249 19.7528 4.38059 19.6677 4.48209C19.5826 4.5836 19.4629 4.64722 19.3337 4.65972C19.3178 4.65944 19.302 4.65859 19.2861 4.65859C19.2702 4.65859 19.2544 4.65944 19.2385 4.65972C19.1093 4.64722 18.9897 4.5836 18.9045 4.48209C18.8194 4.38059 18.7753 4.249 18.7814 4.1147C18.7876 3.98039 18.8434 3.8537 18.9374 3.76096C19.0314 3.66822 19.1563 3.61657 19.2861 3.61674ZM19.2861 10.9528C19.1772 10.9527 19.0713 10.9161 18.9841 10.8485C18.8969 10.781 18.8331 10.6861 18.8022 10.5779C18.9635 10.5863 19.1247 10.5919 19.2861 10.5919C19.4474 10.5919 19.6088 10.5863 19.77 10.5779C19.7391 10.6861 19.6753 10.781 19.5881 10.8486C19.5009 10.9161 19.395 10.9527 19.2861 10.9528ZM20.1137 9.70221C20.1078 9.70278 20.1019 9.70323 20.096 9.70408C19.5572 9.75488 19.015 9.75488 18.4761 9.70408C18.4704 9.70323 18.4648 9.70283 18.4591 9.70227C18.0122 9.65927 17.569 9.58156 17.1332 9.46981L17.526 7.0503C17.593 6.63114 17.7979 6.24885 18.1058 5.96814C18.4137 5.68743 18.8058 5.52555 19.2158 5.5099C19.2391 5.51114 19.2625 5.51178 19.2861 5.51182C19.3097 5.51182 19.3331 5.51118 19.3564 5.5099C19.7664 5.52552 20.1585 5.68738 20.4664 5.96809C20.7744 6.24879 20.9792 6.63108 21.0462 7.05024L21.4389 9.46981C21.0034 9.58153 20.5604 9.65921 20.1137 9.70221ZM19.2861 1C18.0317 1.00156 16.8085 1.40503 15.7843 2.15507C14.76 2.90511 13.9849 3.96498 13.5653 5.18931H3.45178C2.90807 5.18994 2.3868 5.41392 2.00233 5.81212C1.61787 6.21031 1.40161 6.7502 1.401 7.31333V28.0094C1.4007 28.1842 1.44264 28.3562 1.523 28.5099C1.60335 28.6636 1.71956 28.7939 1.86103 28.8892L3.16544 29.7705C3.33031 29.8819 3.52289 29.9412 3.71973 29.9412C3.91656 29.9412 4.10914 29.8819 4.27401 29.7705L5.52187 28.9271C5.55342 28.9058 5.59026 28.8945 5.62791 28.8945C5.66556 28.8945 5.7024 28.9058 5.73395 28.9271L6.98192 29.7704C7.14677 29.8818 7.33935 29.9411 7.53619 29.9411C7.73302 29.9411 7.92561 29.8819 8.09049 29.7705L9.33862 28.9271C9.37017 28.9058 9.40701 28.8945 9.44466 28.8945C9.48231 28.8945 9.51915 28.9058 9.5507 28.9271L10.7991 29.7705C10.9639 29.8819 11.1565 29.9412 11.3533 29.9412C11.5501 29.9412 11.7427 29.8819 11.9076 29.7705L13.1559 28.9271C13.1874 28.9058 13.2243 28.8945 13.262 28.8945C13.2996 28.8945 13.3365 28.9058 13.3681 28.9271L14.6166 29.7706C14.7814 29.8819 14.974 29.9411 15.1708 29.9411C15.3676 29.9411 15.5601 29.8819 15.725 29.7706L16.9734 28.9271C17.0049 28.9058 17.0418 28.8945 17.0794 28.8945C17.1171 28.8945 17.1539 28.9058 17.1855 28.9271L18.4342 29.7707C18.5991 29.882 18.7916 29.9412 18.9884 29.9412C19.1852 29.9412 19.3777 29.882 19.5426 29.7707L20.8474 28.8892C20.9889 28.7939 21.1051 28.6635 21.1855 28.5099C21.2658 28.3562 21.3078 28.1841 21.3075 28.0094V13.2107C22.6572 12.7168 23.795 11.7445 24.5195 10.4658C25.244 9.18702 25.5088 7.68414 25.2668 6.22279C25.0249 4.76144 24.292 3.43573 23.1975 2.47999C22.1031 1.52425 20.7177 1.00003 19.2861 1ZM13.5846 9.43719C13.8253 10.1178 14.1779 10.7502 14.6267 11.3063H5.91283C5.80409 11.3062 5.69983 11.2614 5.62293 11.1818C5.54604 11.1021 5.50279 10.9942 5.50268 10.8815V9.86199C5.50279 9.74936 5.54604 9.64138 5.62293 9.56174C5.69983 9.4821 5.80409 9.43731 5.91283 9.43719H13.5846ZM20.4872 28.0094C20.4872 28.0428 20.4792 28.0757 20.4639 28.1051C20.4485 28.1345 20.4263 28.1594 20.3992 28.1776L19.0944 29.059C19.0629 29.0803 19.026 29.0917 18.9884 29.0917C18.9507 29.0917 18.9139 29.0803 18.8824 29.059L17.6336 28.2154C17.4687 28.1041 17.2762 28.0449 17.0794 28.0449C16.8826 28.0449 16.6901 28.1042 16.5252 28.2155L15.2769 29.0589C15.2453 29.0803 15.2085 29.0916 15.1708 29.0917C15.1331 29.0917 15.0962 29.0803 15.0647 29.059L13.8162 28.2155C13.6513 28.1042 13.4587 28.0449 13.2619 28.0449C13.0651 28.0449 12.8725 28.1042 12.7077 28.2155L11.4593 29.0589C11.4278 29.0802 11.3909 29.0915 11.3533 29.0915C11.3156 29.0915 11.2788 29.0802 11.2472 29.0589L9.99892 28.2155C9.83406 28.1042 9.64148 28.0449 9.44465 28.0449C9.24782 28.0449 9.05525 28.1042 8.8904 28.2156L7.64232 29.059C7.61076 29.0803 7.5739 29.0916 7.53622 29.0916C7.49854 29.0916 7.46168 29.0803 7.43014 29.0589L6.18217 28.2156C6.01729 28.1042 5.82469 28.0449 5.62785 28.0449C5.431 28.045 5.23841 28.1043 5.07354 28.2157L3.82574 29.059C3.79418 29.0803 3.75733 29.0916 3.71967 29.0916C3.68201 29.0916 3.64516 29.0803 3.6136 29.059L2.30931 28.1776C2.28225 28.1594 2.26002 28.1345 2.24465 28.1051C2.22928 28.0757 2.22126 28.0428 2.22132 28.0094V7.31333C2.22169 6.97546 2.35145 6.65153 2.58213 6.41262C2.8128 6.1737 3.12556 6.03931 3.45178 6.03892H13.338C13.1742 6.88042 13.1782 7.74769 13.3495 8.58758H5.91283C5.58661 8.58797 5.27385 8.72236 5.04317 8.96128C4.8125 9.20019 4.68274 9.52412 4.68236 9.86199V10.8815C4.68274 11.2194 4.8125 11.5433 5.04317 11.7822C5.27385 12.0212 5.58661 12.1555 5.91283 12.1559H15.2097C15.2838 12.1557 15.3577 12.1485 15.4305 12.1344C16.1262 12.7286 16.9411 13.1547 17.8158 13.3816C18.6906 13.6084 19.6032 13.6304 20.4872 13.4458V28.0094ZM19.2861 12.7201C18.2482 12.7201 17.2336 12.4013 16.3706 11.8041C15.5076 11.2068 14.835 10.358 14.4378 9.36482C14.0406 8.37166 13.9366 7.27881 14.1391 6.22448C14.3416 5.17015 14.8414 4.20168 15.5753 3.44155C16.3093 2.68142 17.2443 2.16377 18.2623 1.95405C19.2803 1.74433 20.3355 1.85196 21.2944 2.26334C22.2533 2.67472 23.0729 3.37137 23.6495 4.26519C24.2261 5.15901 24.5339 6.20986 24.5339 7.28484C24.5323 8.72585 23.9789 10.1074 22.9951 11.1263C22.0113 12.1453 20.6774 12.7184 19.2861 12.7201ZM18.1546 14.8235C18.1546 14.7109 18.1114 14.6028 18.0344 14.5232C17.9575 14.4435 17.8532 14.3987 17.7444 14.3987H15.3858C15.277 14.3987 15.1727 14.4435 15.0958 14.5232C15.0189 14.6028 14.9756 14.7109 14.9756 14.8235C14.9756 14.9362 15.0189 15.0443 15.0958 15.1239C15.1727 15.2036 15.277 15.2483 15.3858 15.2483H15.8147C15.9738 15.2485 16.1299 15.2935 16.2662 15.3786C16.4025 15.4636 16.5139 15.5855 16.5885 15.7311H15.3858C15.277 15.7311 15.1727 15.7759 15.0958 15.8555C15.0189 15.9352 14.9756 16.0432 14.9756 16.1559C14.9756 16.2686 15.0189 16.3766 15.0958 16.4563C15.1727 16.5359 15.277 16.5807 15.3858 16.5807H16.5885C16.514 16.7263 16.4026 16.8482 16.2663 16.9333C16.1299 17.0183 15.9738 17.0634 15.8147 17.0635H15.3858C15.3055 17.0635 15.2269 17.0879 15.1599 17.1337C15.0928 17.1796 15.0402 17.2448 15.0086 17.3213C14.977 17.3978 14.9678 17.4822 14.9822 17.564C14.9965 17.6459 15.0337 17.7216 15.0892 17.7818L16.8045 19.6418C16.8417 19.6821 16.8862 19.7145 16.9355 19.737C16.9848 19.7596 17.0379 19.7718 17.0917 19.7731C17.1456 19.7744 17.1991 19.7646 17.2494 19.7445C17.2996 19.7243 17.3455 19.6941 17.3844 19.6556C17.4234 19.617 17.4546 19.5709 17.4764 19.5199C17.4981 19.4689 17.51 19.4139 17.5112 19.3581C17.5124 19.3023 17.5031 19.2469 17.4836 19.1948C17.4641 19.1428 17.435 19.0953 17.3978 19.0549L16.2822 17.8453C16.5682 17.7596 16.8276 17.5978 17.0344 17.3759C17.2411 17.154 17.3881 16.8798 17.4607 16.5807H17.7444C17.8531 16.5807 17.9575 16.5359 18.0344 16.4563C18.1113 16.3766 18.1545 16.2686 18.1545 16.1559C18.1545 16.0432 18.1113 15.9352 18.0344 15.8555C17.9575 15.7759 17.8531 15.7311 17.7444 15.7311H17.4609C17.42 15.561 17.3546 15.3983 17.2669 15.2483H17.7443C17.8531 15.2483 17.9574 15.2036 18.0343 15.1239C18.1113 15.0443 18.1546 14.9362 18.1546 14.8235ZM11.2843 14.3987H5.09241C4.98363 14.3987 4.8793 14.4435 4.80239 14.5232C4.72547 14.6028 4.68225 14.7109 4.68225 14.8235C4.68225 14.9362 4.72547 15.0443 4.80239 15.1239C4.8793 15.2036 4.98363 15.2483 5.09241 15.2483H11.2843C11.3382 15.2483 11.3915 15.2374 11.4413 15.216C11.491 15.1947 11.5362 15.1634 11.5743 15.1239C11.6124 15.0845 11.6426 15.0376 11.6632 14.9861C11.6838 14.9346 11.6944 14.8793 11.6944 14.8235C11.6944 14.7678 11.6838 14.7125 11.6632 14.661C11.6426 14.6094 11.6124 14.5626 11.5743 14.5232C11.5362 14.4837 11.491 14.4524 11.4413 14.4311C11.3915 14.4097 11.3382 14.3987 11.2843 14.3987ZM18.1546 21.6204C18.1546 21.5078 18.1114 21.3997 18.0344 21.32C17.9575 21.2404 17.8532 21.1956 17.7444 21.1956H15.3858C15.277 21.1956 15.1727 21.2404 15.0958 21.32C15.0189 21.3997 14.9756 21.5078 14.9756 21.6204C14.9756 21.7331 15.0189 21.8411 15.0958 21.9208C15.1727 22.0005 15.277 22.0452 15.3858 22.0452H15.8147C15.9738 22.0454 16.1299 22.0904 16.2662 22.1754C16.4025 22.2605 16.5139 22.3823 16.5885 22.528H15.3858C15.277 22.528 15.1727 22.5727 15.0958 22.6524C15.0189 22.7321 14.9756 22.8401 14.9756 22.9528C14.9756 23.0654 15.0189 23.1735 15.0958 23.2532C15.1727 23.3328 15.277 23.3776 15.3858 23.3776H16.5885C16.514 23.5232 16.4026 23.6451 16.2663 23.7302C16.1299 23.8152 15.9738 23.8602 15.8147 23.8604H15.3858C15.3055 23.8604 15.2269 23.8848 15.1599 23.9306C15.0928 23.9764 15.0402 24.0416 15.0086 24.1181C14.977 24.1946 14.9678 24.279 14.9822 24.3609C14.9965 24.4428 15.0337 24.5185 15.0892 24.5786L16.8045 26.4387C16.8417 26.479 16.8862 26.5114 16.9355 26.5339C16.9848 26.5564 17.0379 26.5687 17.0917 26.57C17.1456 26.5712 17.1991 26.5615 17.2494 26.5414C17.2996 26.5212 17.3455 26.491 17.3844 26.4525C17.4234 26.4139 17.4546 26.3678 17.4764 26.3168C17.4981 26.2657 17.51 26.2108 17.5112 26.155C17.5124 26.0992 17.5031 26.0437 17.4836 25.9917C17.4641 25.9397 17.435 25.8922 17.3978 25.8518L16.2822 24.6422C16.5682 24.5565 16.8276 24.3946 17.0344 24.1727C17.2411 23.9509 17.3881 23.6767 17.4607 23.3776H17.7444C17.8531 23.3776 17.9575 23.3328 18.0344 23.2532C18.1113 23.1735 18.1545 23.0654 18.1545 22.9528C18.1545 22.8401 18.1113 22.7321 18.0344 22.6524C17.9575 22.5727 17.8531 22.528 17.7444 22.528H17.4609C17.42 22.3579 17.3546 22.1952 17.2669 22.0452H17.7443C17.8531 22.0452 17.9574 22.0005 18.0343 21.9208C18.1113 21.8411 18.1546 21.7331 18.1546 21.6204Z" fill="#A51414" stroke="#A51414"/>
</svg>
