<svg width="22" height="22" viewBox="0 0 22 22" fill="none" xmlns="http://www.w3.org/2000/svg">
<path d="M17.6282 21.9998C16.6695 21.9998 15.3227 21.6531 13.3059 20.5266C10.8535 19.1516 8.95661 17.8821 6.51745 15.4498C4.16572 13.1 3.02129 11.5787 1.41958 8.6646C-0.389902 5.37439 -0.0814462 3.64972 0.263356 2.91262C0.673976 2.03162 1.28008 1.5047 2.0635 0.981699C2.50848 0.690213 2.97937 0.440344 3.47022 0.235261C3.51933 0.214145 3.56501 0.194011 3.60578 0.175841C3.84891 0.0663309 4.21729 -0.0991622 4.6839 0.0776257C4.99531 0.194502 5.27331 0.433657 5.70849 0.863349C6.60095 1.74336 7.82053 3.70325 8.27044 4.66576C8.57251 5.31447 8.77242 5.74269 8.77291 6.22297C8.77291 6.78525 8.48999 7.21887 8.14666 7.68687C8.08232 7.77477 8.01847 7.85875 7.95658 7.94026C7.5828 8.43134 7.50077 8.57326 7.5548 8.82666C7.66433 9.33591 8.48115 10.8519 9.82353 12.191C11.1659 13.5302 12.6384 14.2953 13.1497 14.4043C13.414 14.4608 13.5589 14.3753 14.0658 13.9884C14.1385 13.9329 14.2131 13.8754 14.2912 13.818C14.8148 13.4285 15.2284 13.1531 15.7775 13.1531H15.7805C16.2584 13.1531 16.6675 13.3603 17.3453 13.7021C18.2294 14.148 20.2486 15.3516 21.1342 16.2449C21.565 16.679 21.8052 16.956 21.9226 17.2668C22.0994 17.7348 21.9329 18.1016 21.8243 18.3472C21.8062 18.3879 21.786 18.4326 21.7649 18.4822C21.5581 18.9721 21.3068 19.4419 21.0139 19.8857C20.4918 20.6665 19.9628 21.271 19.0797 21.6821C18.6262 21.8966 18.1299 22.0052 17.6282 21.9998Z" fill="black"/>
</svg>
