<svg width="25" height="24" viewBox="0 0 25 24" fill="none" xmlns="http://www.w3.org/2000/svg">
<path d="M10.0549 16.6978L11.9145 18.4871L18.5087 12.1421L11.9145 5.79717L10.0549 7.58645L13.4575 10.8732L0.704346 10.8732L0.704346 13.4111L13.4575 13.4111L10.0549 16.6978ZM21.8058 0.721191L3.34203 0.721191C1.87811 0.721191 0.704346 1.86329 0.704346 3.25918L0.704346 8.33516H3.34203L3.34203 3.25918L21.8058 3.25918L21.8058 21.0251L3.34203 21.0251L3.34203 15.9491H0.704346L0.704346 21.0251C0.704346 22.421 1.87811 23.5631 3.34203 23.5631L21.8058 23.5631C23.2565 23.5631 24.4435 22.421 24.4435 21.0251L24.4435 3.25918C24.4435 1.86329 23.2565 0.721191 21.8058 0.721191Z" fill="#A51414"/>
</svg>
