<svg width="41" height="41" viewBox="0 0 41 41" fill="none" xmlns="http://www.w3.org/2000/svg">
<path d="M31.9071 4.23926L36.9172 9.24938L33.0978 13.0704L28.0877 8.06031L31.9071 4.23926ZM13.5566 27.5998H18.5668L30.7364 15.4302L25.7262 10.4201L13.5566 22.5897V27.5998Z" fill="#A51414"/>
<path d="M31.927 32.6098H13.8204C13.7769 32.6098 13.7319 32.6265 13.6884 32.6265C13.6333 32.6265 13.5782 32.6115 13.5214 32.6098H8.54638V9.22924H19.9812L23.3212 5.88916H8.54638C6.70433 5.88916 5.2063 7.38552 5.2063 9.22924V32.6098C5.2063 34.4535 6.70433 35.9499 8.54638 35.9499H31.927C32.8128 35.9499 33.6624 35.598 34.2887 34.9716C34.9151 34.3452 35.267 33.4957 35.267 32.6098V18.1339L31.927 21.474V32.6098Z" fill="#A51414"/>
</svg>
