<svg width="38" height="38" viewBox="0 0 38 38" fill="none" xmlns="http://www.w3.org/2000/svg">
<path d="M34.5255 15.8989H33.2501V15.8332H19.0001V22.1665H27.9483C26.6428 25.8533 23.135 28.4998 19.0001 28.4998C13.7537 28.4998 9.50008 24.2462 9.50008 18.9998C9.50008 13.7535 13.7537 9.49984 19.0001 9.49984C21.4218 9.49984 23.625 10.4134 25.3025 11.9057L29.781 7.42725C26.9532 4.7918 23.1706 3.1665 19.0001 3.1665C10.2561 3.1665 3.16675 10.2559 3.16675 18.9998C3.16675 27.7438 10.2561 34.8332 19.0001 34.8332C27.744 34.8332 34.8334 27.7438 34.8334 18.9998C34.8334 17.9382 34.7242 16.9019 34.5255 15.8989Z" fill="#FFC107"/>
<path d="M4.99219 11.6302L10.1942 15.4453C11.6018 11.9603 15.0107 9.49984 18.9999 9.49984C21.4216 9.49984 23.6249 10.4134 25.3024 11.9057L29.7809 7.42725C26.953 4.7918 23.1704 3.1665 18.9999 3.1665C12.9184 3.1665 7.64427 6.59996 4.99219 11.6302Z" fill="#FF3D00"/>
<path d="M18.9999 34.8334C23.0897 34.8334 26.8058 33.2683 29.6154 30.7231L24.715 26.5763C23.0722 27.8264 21.0643 28.5023 18.9999 28.5001C14.8817 28.5001 11.3849 25.8741 10.0675 22.2095L4.9043 26.1876C7.52471 31.3152 12.8463 34.8334 18.9999 34.8334Z" fill="#4CAF50"/>
<path d="M34.5254 15.8992H33.25V15.8335H19V22.1668H27.9482C27.3237 23.9215 26.1989 25.4548 24.7127 26.5772L24.715 26.5756L29.6155 30.7224C29.2687 31.0375 34.8333 26.9168 34.8333 19.0002C34.8333 17.9385 34.7241 16.9022 34.5254 15.8992Z" fill="#1976D2"/>
</svg>
