<svg width="35" height="35" viewBox="0 0 35 35" fill="none" xmlns="http://www.w3.org/2000/svg">
<g clip-path="url(#clip0_3637_1677)">
<path d="M28.6775 33.5346C29.9869 33.5346 31.0485 32.4748 31.0485 31.1674C31.0485 29.8601 29.9869 28.8003 28.6775 28.8003C27.368 28.8003 26.3065 29.8601 26.3065 31.1674C26.3065 32.4748 27.368 33.5346 28.6775 33.5346Z" stroke="#AD0506" stroke-width="2" stroke-linecap="round" stroke-linejoin="round"/>
<path d="M16.8226 33.5346C18.1321 33.5346 19.1936 32.4748 19.1936 31.1674C19.1936 29.8601 18.1321 28.8003 16.8226 28.8003C15.5132 28.8003 14.4517 29.8601 14.4517 31.1674C14.4517 32.4748 15.5132 33.5346 16.8226 33.5346Z" stroke="#AD0506" stroke-width="2" stroke-linecap="round" stroke-linejoin="round"/>
<path d="M3.10491 33.5345C3.82199 33.5345 4.40329 32.9541 4.40329 32.2382C4.40329 31.5223 3.82199 30.9419 3.10491 30.9419C2.38783 30.9419 1.80652 31.5223 1.80652 32.2382C1.80652 32.9541 2.38783 33.5345 3.10491 33.5345Z" stroke="#AD0506" stroke-width="2" stroke-linecap="round" stroke-linejoin="round"/>
<path d="M0.564575 34.3799H34.4355" stroke="#AD0506" stroke-width="2" stroke-linecap="round" stroke-linejoin="round"/>
<path d="M24.2743 0.563477H34.4356" stroke="#AD0506" stroke-width="2" stroke-linecap="round" stroke-linejoin="round"/>
<path d="M17.5 3.94531H27.6613" stroke="#AD0506" stroke-width="2" stroke-linecap="round" stroke-linejoin="round"/>
<path d="M10.7258 7.32666H20.8871" stroke="#AD0506" stroke-width="2" stroke-linecap="round" stroke-linejoin="round"/>
<path d="M26.3065 30.998H19.1936" stroke="#AD0506" stroke-width="2" stroke-linecap="round" stroke-linejoin="round"/>
<path d="M14.4516 30.9984H11.2339V28.124H34.4355V30.9984H31.0484" stroke="#AD0506" stroke-width="2" stroke-linecap="round" stroke-linejoin="round"/>
<path d="M25.3469 28.124H11.9114V16.9082C11.9114 16.2882 12.4194 15.7246 13.0969 15.7246H24.2178C24.8388 15.7246 25.4033 16.2319 25.4033 16.9082V28.124H25.3469Z" stroke="#AD0506" stroke-width="2" stroke-linecap="round" stroke-linejoin="round"/>
<path d="M33.3065 28.124H25.3468V17.3027H30.4274C32.0645 17.3027 33.3629 18.599 33.3629 20.2335V28.124H33.3065Z" stroke="#AD0506" stroke-width="2" stroke-linecap="round" stroke-linejoin="round"/>
<path d="M33.3065 22.5441H29.5242C28.6774 22.5441 28 21.8677 28 21.0223V17.3589" stroke="#AD0506" stroke-width="2" stroke-linecap="round" stroke-linejoin="round"/>
<path d="M11.234 28.124L7.39526 34.3801" stroke="#AD0506" stroke-width="2" stroke-linecap="round" stroke-linejoin="round"/>
<path d="M0.564575 24.7422H2.08877L2.93554 30.9982" stroke="#AD0506" stroke-width="2" stroke-linecap="round" stroke-linejoin="round"/>
<path d="M4.29041 31.6747L7.50815 31.1675" stroke="#AD0506" stroke-width="2" stroke-linecap="round" stroke-linejoin="round"/>
<path d="M2.5968 27.6728L5.92745 27.2783L6.37906 31.3363" stroke="#AD0506" stroke-width="2" stroke-linecap="round" stroke-linejoin="round"/>
<path d="M11.9113 18.4863H10.9517" stroke="#AD0506" stroke-width="2" stroke-linecap="round" stroke-linejoin="round"/>
<path d="M28.0565 24.7422H29.3549" stroke="#AD0506" stroke-width="2" stroke-linecap="round" stroke-linejoin="round"/>
<path d="M15.1292 24.9678H22.1292" stroke="#AD0506" stroke-width="2" stroke-linecap="round" stroke-linejoin="round"/>
<path d="M15.1292 22.939H22.1292" stroke="#AD0506" stroke-width="2" stroke-linecap="round" stroke-linejoin="round"/>
<path d="M15.1292 20.9097H22.1292" stroke="#AD0506" stroke-width="2" stroke-linecap="round" stroke-linejoin="round"/>
<path d="M15.1292 18.8809H22.1292" stroke="#AD0506" stroke-width="2" stroke-linecap="round" stroke-linejoin="round"/>
</g>
<defs>
<clipPath id="clip0_3637_1677">
<rect width="35" height="35" fill="white"/>
</clipPath>
</defs>
</svg>
