<svg width="37" height="36" viewBox="0 0 37 36" fill="none" xmlns="http://www.w3.org/2000/svg">
<path d="M1.37097 34.4023H36" stroke="#AD0506" stroke-width="2" stroke-linecap="round" stroke-linejoin="round"/>
<path d="M18.4533 26.0763C18.9498 26.0763 19.4415 25.9846 19.9003 25.8065C20.359 25.6284 20.7759 25.3674 21.127 25.0383C21.4781 24.7092 21.7566 24.3185 21.9466 23.8886C22.1367 23.4586 22.2345 22.9978 22.2345 22.5324V21.6445C22.2345 20.7046 21.8361 19.8032 21.127 19.1386C20.4179 18.474 19.4561 18.1006 18.4533 18.1006C17.4505 18.1006 16.4887 18.474 15.7796 19.1386C15.0705 19.8032 14.6721 20.7046 14.6721 21.6445V22.5324C14.6721 23.4723 15.0705 24.3737 15.7796 25.0383C16.4887 25.7029 17.4505 26.0763 18.4533 26.0763Z" stroke="#AD0506" stroke-width="2" stroke-linecap="round" stroke-linejoin="round"/>
<path d="M25.906 34.3143C25.906 29.6168 22.3622 26.0757 18.4516 26.0757C14.5409 26.0757 10.9989 29.6196 10.9989 34.3143" stroke="#AD0506" stroke-width="2" stroke-linecap="round" stroke-linejoin="round"/>
<path d="M9.72836 27.9942C8.89076 27.9942 8.08747 27.6823 7.4952 27.1272C6.90293 26.5721 6.57019 25.8192 6.57019 25.0342V23.9156C6.57019 23.1305 6.90293 22.3776 7.4952 21.8225C8.08747 21.2674 8.89076 20.9556 9.72836 20.9556C10.566 20.9556 11.3693 21.2674 11.9615 21.8225C12.5538 22.3776 12.8865 23.1305 12.8865 23.9156V25.0342C12.8865 25.8192 12.5538 26.5721 11.9615 27.1272C11.3693 27.6823 10.566 27.9942 9.72836 27.9942Z" stroke="#AD0506" stroke-width="2" stroke-linecap="round" stroke-linejoin="round"/>
<path d="M27.1788 27.9942C28.0164 27.9942 28.8197 27.6823 29.412 27.1272C30.0042 26.5721 30.337 25.8192 30.337 25.0342V23.9156C30.337 23.1305 30.0042 22.3776 29.412 21.8225C28.8197 21.2674 28.0164 20.9556 27.1788 20.9556C26.3412 20.9556 25.5379 21.2674 24.9456 21.8225C24.3534 22.3776 24.0206 23.1305 24.0206 23.9156V25.0342C24.0206 25.8192 24.3534 26.5721 24.9456 27.1272C25.5379 27.6823 26.3412 27.9942 27.1788 27.9942Z" stroke="#AD0506" stroke-width="2" stroke-linecap="round" stroke-linejoin="round"/>
<path d="M22.9683 34.3151L22.0974 31.0156" stroke="#AD0506" stroke-width="2" stroke-linecap="round" stroke-linejoin="round"/>
<path d="M13.9384 34.3151L14.8093 31.0156" stroke="#AD0506" stroke-width="2" stroke-linecap="round" stroke-linejoin="round"/>
<path d="M12.8079 28.9614C11.9156 28.3428 10.8376 28.0041 9.72786 27.9937C6.66069 27.9937 3.8811 30.7103 3.8811 34.3144" stroke="#AD0506" stroke-width="2" stroke-linecap="round" stroke-linejoin="round"/>
<path d="M6.18701 34.3146L6.8701 31.7832" stroke="#AD0506" stroke-width="2" stroke-linecap="round" stroke-linejoin="round"/>
<path d="M24.0989 28.9614C24.9912 28.3428 26.0691 28.0041 27.1789 27.9937C30.2461 27.9937 33.0256 30.7103 33.0256 34.3144" stroke="#AD0506" stroke-width="2" stroke-linecap="round" stroke-linejoin="round"/>
<path d="M30.7202 34.3146L30.0371 31.7832" stroke="#AD0506" stroke-width="2" stroke-linecap="round" stroke-linejoin="round"/>
<path d="M18.4533 5.66513C18.1657 5.39558 17.7757 5.24414 17.3689 5.24414C16.9622 5.24414 16.5721 5.39558 16.2845 5.66513C15.9969 5.93469 15.8353 6.30029 15.8353 6.6815C15.8353 7.06271 15.9969 7.42831 16.2845 7.69787L18.4533 9.73061L20.6222 7.69787C20.9098 7.42831 21.0714 7.06271 21.0714 6.6815C21.0714 6.30029 20.9098 5.93469 20.6222 5.66513C20.3346 5.39558 19.9445 5.24414 19.5378 5.24414C19.131 5.24414 18.7409 5.39558 18.4533 5.66513Z" stroke="#AD0506" stroke-width="2" stroke-linecap="round" stroke-linejoin="round"/>
<path d="M9.72665 5.15283L10.5357 6.68914L12.3441 6.93571L11.0351 8.13141L11.3442 9.82025L9.72606 9.02312L8.10906 9.81807L8.41823 8.12922L7.10864 6.93571L8.91698 6.68914L9.72665 5.15283Z" stroke="#AD0506" stroke-width="2" stroke-linecap="round" stroke-linejoin="round"/>
<path d="M27.18 5.15283L27.9891 6.68914L29.7974 6.93571L28.4884 8.13141L28.7976 9.82025L27.1794 9.02312L25.5618 9.81807L25.871 8.12922L24.562 6.93571L26.3703 6.68914L27.18 5.15283Z" stroke="#AD0506" stroke-width="2" stroke-linecap="round" stroke-linejoin="round"/>
<path d="M31.7003 1.59814H5.20642C4.09086 1.59829 3.02103 2.0137 2.2322 2.75302C1.44338 3.49235 1.00015 4.49504 1 5.54061V9.43331C1.00015 10.4789 1.44338 11.4816 2.2322 12.2209C3.02103 12.9602 4.09086 13.3756 5.20642 13.3758H7.11042L9.72842 17.3018L12.3464 13.3758H16.708L18.4533 15.9935L20.1987 13.3763H24.5603L27.1783 17.3024L29.7963 13.3763H31.7003C32.8158 13.3762 33.8857 12.9608 34.6745 12.2214C35.4633 11.4821 35.9065 10.4794 35.9067 9.43386V5.54061C35.9065 4.49504 35.4633 3.49235 34.6745 2.75302C33.8857 2.0137 32.8158 1.59829 31.7003 1.59814Z" stroke="#AD0506" stroke-width="2" stroke-linecap="round" stroke-linejoin="round"/>
</svg>
