<svg width="35" height="36" viewBox="0 0 35 36" fill="none" xmlns="http://www.w3.org/2000/svg">
<g clip-path="url(#clip0_3637_1632)">
<path d="M16.7758 30.5424C16.8069 30.3712 16.8226 30.1976 16.8226 30.0236C16.8226 29.26 16.5193 28.5277 15.9794 27.9878C15.4395 27.4479 14.7072 27.1445 13.9436 27.1445H3.44361C2.68004 27.1445 1.94775 27.4479 1.40782 27.9878C0.867901 28.5277 0.564575 29.26 0.564575 30.0236C0.564575 30.7871 0.867901 31.5194 1.40782 32.0593C1.94775 32.5993 2.68004 32.9026 3.44361 32.9026H4.29038" stroke="#AD0506" stroke-width="2" stroke-linecap="round" stroke-linejoin="round"/>
<path d="M8.68628 32.9025H13.9436C14.114 32.9027 14.284 32.8878 14.4517 32.8579" stroke="#AD0506" stroke-width="2" stroke-linecap="round" stroke-linejoin="round"/>
<path d="M6.32263 27.1447L7.33876 19.0156H14.113L14.8327 24.7737" stroke="#AD0506" stroke-width="2" stroke-linecap="round" stroke-linejoin="round"/>
<path d="M14.3952 16.8711H7.05649C6.58883 16.8711 6.20972 17.2502 6.20972 17.7179C6.20972 18.1855 6.58883 18.5646 7.05649 18.5646H14.3952C14.8629 18.5646 15.242 18.1855 15.242 17.7179C15.242 17.2502 14.8629 16.8711 14.3952 16.8711Z" stroke="#AD0506" stroke-width="2" stroke-linecap="round" stroke-linejoin="round"/>
<path d="M27.6613 18.1689H21.5645C20.6292 18.1689 19.871 18.9272 19.871 19.8625V23.2496C19.871 24.1849 20.6292 24.9431 21.5645 24.9431H27.6613C28.5966 24.9431 29.3548 24.1849 29.3548 23.2496V19.8625C29.3548 18.9272 28.5966 18.1689 27.6613 18.1689Z" stroke="#AD0506" stroke-width="2" stroke-linecap="round" stroke-linejoin="round"/>
<path d="M26.3065 18.1689H22.9194V20.5399H26.3065V18.1689Z" stroke="#AD0506" stroke-width="2" stroke-linecap="round" stroke-linejoin="round"/>
<path d="M27.6613 24.9429H21.5645C20.6292 24.9429 19.871 25.7011 19.871 26.6364V30.0235C19.871 30.9588 20.6292 31.7171 21.5645 31.7171H27.6613C28.5966 31.7171 29.3548 30.9588 29.3548 30.0235V26.6364C29.3548 25.7011 28.5966 24.9429 27.6613 24.9429Z" stroke="#AD0506" stroke-width="2" stroke-linecap="round" stroke-linejoin="round"/>
<path d="M26.3065 24.9429H22.9194V27.3138H26.3065V24.9429Z" stroke="#AD0506" stroke-width="2" stroke-linecap="round" stroke-linejoin="round"/>
<path d="M14.9597 24.7734H13.2662C12.9518 24.7734 12.6502 24.8983 12.4279 25.1207C12.2056 25.343 12.0807 25.6445 12.0807 25.9589V27.1444H14.9597C15.2741 27.1444 15.5757 27.0195 15.798 26.7972C16.0203 26.5749 16.1452 26.2733 16.1452 25.9589C16.1452 25.6445 16.0203 25.343 15.798 25.1207C15.5757 24.8983 15.2741 24.7734 14.9597 24.7734Z" stroke="#AD0506" stroke-width="2" stroke-linecap="round" stroke-linejoin="round"/>
<path d="M18.3885 34.0883H32.0645C32.6933 34.0883 33.2964 33.8385 33.741 33.3938C34.1857 32.9492 34.4355 32.3461 34.4355 31.7173H18.6065" stroke="#AD0506" stroke-width="2" stroke-linecap="round" stroke-linejoin="round"/>
<path d="M6.49202 30.5317C6.05658 30.5317 5.63092 30.6609 5.26887 30.9028C4.90682 31.1447 4.62463 31.4885 4.45799 31.8908C4.29136 32.2931 4.24776 32.7358 4.33271 33.1629C4.41766 33.5899 4.62734 33.9822 4.93524 34.2901C5.24314 34.598 5.63543 34.8077 6.06251 34.8927C6.48958 34.9776 6.93225 34.934 7.33454 34.7674C7.73683 34.6007 8.08068 34.3186 8.32259 33.9565C8.56451 33.5944 8.69363 33.1688 8.69363 32.7334C8.69363 32.1494 8.46168 31.5895 8.04879 31.1766C7.63591 30.7637 7.07592 30.5317 6.49202 30.5317Z" stroke="#AD0506" stroke-width="2" stroke-linecap="round" stroke-linejoin="round"/>
<path d="M16.6534 30.5317C16.218 30.5317 15.7923 30.6609 15.4302 30.9028C15.0682 31.1447 14.786 31.4885 14.6194 31.8908C14.4527 32.2931 14.4091 32.7358 14.4941 33.1629C14.579 33.5899 14.7887 33.9822 15.0966 34.2901C15.4045 34.598 15.7968 34.8077 16.2239 34.8927C16.651 34.9776 17.0936 34.934 17.4959 34.7674C17.8982 34.6007 18.2421 34.3186 18.484 33.9565C18.7259 33.5944 18.855 33.1688 18.855 32.7334C18.855 32.1494 18.6231 31.5895 18.2102 31.1766C17.7973 30.7637 17.2373 30.5317 16.6534 30.5317Z" stroke="#AD0506" stroke-width="2" stroke-linecap="round" stroke-linejoin="round"/>
<path d="M20.2578 13.5959C21.006 13.5959 21.6126 12.9893 21.6126 12.2411C21.6126 11.4928 21.006 10.8862 20.2578 10.8862C19.5095 10.8862 18.903 11.4928 18.903 12.2411C18.903 12.9893 19.5095 13.5959 20.2578 13.5959Z" stroke="#AD0506" stroke-width="2" stroke-linecap="round" stroke-linejoin="round"/>
<path d="M14.8384 13.5959C15.5866 13.5959 16.1932 12.9893 16.1932 12.2411C16.1932 11.4928 15.5866 10.8862 14.8384 10.8862C14.0901 10.8862 13.4835 11.4928 13.4835 12.2411C13.4835 12.9893 14.0901 13.5959 14.8384 13.5959Z" stroke="#AD0506" stroke-width="2" stroke-linecap="round" stroke-linejoin="round"/>
<path d="M3.99963 27.1449V13.9443L17.8427 3.63623L31.0964 13.9443V31.7175" stroke="#AD0506" stroke-width="2" stroke-linecap="round" stroke-linejoin="round"/>
<path d="M3.99966 13.9524H0.564575L17.8681 1.06445L34.4355 13.9524H31.0964" stroke="#AD0506" stroke-width="2" stroke-linecap="round" stroke-linejoin="round"/>
</g>
<defs>
<clipPath id="clip0_3637_1632">
<rect width="35" height="35" fill="white" transform="translate(0 0.5)"/>
</clipPath>
</defs>
</svg>
