<svg width="30" height="32" viewBox="0 0 30 32" fill="none" xmlns="http://www.w3.org/2000/svg">
<path d="M6.89803 8.51451C6.89803 8.22666 7.01238 7.95059 7.21592 7.74705C7.41947 7.5435 7.69553 7.42915 7.98339 7.42915H12.3248C12.6127 7.42915 12.8888 7.5435 13.0923 7.74705C13.2958 7.95059 13.4102 8.22666 13.4102 8.51451C13.4102 8.80237 13.2958 9.07844 13.0923 9.28198C12.8888 9.48553 12.6127 9.59988 12.3248 9.59988H7.98339C7.69553 9.59988 7.41947 9.48553 7.21592 9.28198C7.01238 9.07844 6.89803 8.80237 6.89803 8.51451ZM15.5809 11.7706H7.98339C7.69553 11.7706 7.41947 11.8849 7.21592 12.0885C7.01238 12.292 6.89803 12.5681 6.89803 12.856C6.89803 13.1438 7.01238 13.4199 7.21592 13.6234C7.41947 13.827 7.69553 13.9413 7.98339 13.9413H15.5809C15.8688 13.9413 16.1448 13.827 16.3484 13.6234C16.5519 13.4199 16.6663 13.1438 16.6663 12.856C16.6663 12.5681 16.5519 12.292 16.3484 12.0885C16.1448 11.8849 15.8688 11.7706 15.5809 11.7706ZM15.5809 16.112H7.98339C7.69553 16.112 7.41947 16.2264 7.21592 16.4299C7.01238 16.6335 6.89803 16.9095 6.89803 17.1974C6.89803 17.4853 7.01238 17.7613 7.21592 17.9649C7.41947 18.1684 7.69553 18.2828 7.98339 18.2828H15.5809C15.8688 18.2828 16.1448 18.1684 16.3484 17.9649C16.5519 17.7613 16.6663 17.4853 16.6663 17.1974C16.6663 16.9095 16.5519 16.6335 16.3484 16.4299C16.1448 16.2264 15.8688 16.112 15.5809 16.112ZM29.6906 7.42915C29.6934 8.47172 29.4451 9.49964 28.9668 10.426C28.4885 11.3524 27.7942 12.15 26.9426 12.7515C26.091 13.3529 25.1071 13.7405 24.0741 13.8815C23.0411 14.0225 21.9893 13.9127 21.0077 13.5614V28.051C21.0077 28.9146 20.6647 29.7428 20.054 30.3534C19.4434 30.964 18.6152 31.3071 17.7516 31.3071H3.64195C2.77838 31.3071 1.95018 30.964 1.33955 30.3534C0.728915 29.7428 0.385864 28.9146 0.385864 28.051V25.8803C0.385864 25.5924 0.500214 25.3164 0.703759 25.1128C0.907303 24.9093 1.18337 24.7949 1.47122 24.7949H2.55659V5.25843C2.55659 4.10701 3.01399 3.00275 3.82816 2.18857C4.64234 1.37439 5.7466 0.916992 6.89803 0.916992H19.9223C20.0935 0.918612 20.2617 0.961367 20.4128 1.04165C20.5639 1.12193 20.6935 1.23739 20.7906 1.37827C21.7774 0.986004 22.8453 0.8415 23.9008 0.957397C24.9563 1.07329 25.9674 1.44606 26.8455 2.0431C27.7237 2.64013 28.4422 3.44324 28.9381 4.38218C29.4341 5.32111 29.6925 6.36728 29.6906 7.42915ZM3.64195 29.1364H14.6953C14.5667 28.7888 14.4991 28.4216 14.4955 28.051V26.9656H2.55659V28.051C2.55659 28.3389 2.67094 28.6149 2.87448 28.8185C3.07802 29.022 3.35409 29.1364 3.64195 29.1364ZM18.837 12.2699C18.1985 11.7015 17.6789 11.0124 17.3079 10.2423C16.937 9.47216 16.7222 8.63626 16.6758 7.78273C16.6293 6.9292 16.7523 6.07492 17.0375 5.26913C17.3228 4.46334 17.7647 3.72196 18.3377 3.08771H6.89803C6.32232 3.08771 5.77018 3.31641 5.3631 3.7235C4.95601 4.13059 4.72731 4.68272 4.72731 5.25843V24.7949H15.5809C15.8688 24.7949 16.1448 24.9093 16.3484 25.1128C16.5519 25.3164 16.6663 25.5924 16.6663 25.8803V28.051C16.6663 28.3389 16.7806 28.6149 16.9842 28.8185C17.1877 29.022 17.4638 29.1364 17.7516 29.1364C18.0395 29.1364 18.3156 29.022 18.5191 28.8185C18.7226 28.6149 18.837 28.3389 18.837 28.051V12.2699ZM27.5199 7.42915C27.5199 6.5705 27.2653 5.73113 26.7882 5.01718C26.3112 4.30323 25.6331 3.74678 24.8398 3.41819C24.0465 3.08959 23.1736 3.00362 22.3315 3.17113C21.4893 3.33865 20.7157 3.75213 20.1086 4.35929C19.5014 4.96645 19.0879 5.74002 18.9204 6.58218C18.7529 7.42434 18.8389 8.29726 19.1675 9.09055C19.4961 9.88385 20.0525 10.5619 20.7665 11.0389C21.4804 11.516 22.3198 11.7706 23.1784 11.7706C24.3299 11.7706 25.4341 11.3132 26.2483 10.499C27.0625 9.68484 27.5199 8.58058 27.5199 7.42915ZM25.3492 6.34379H24.2638C24.2638 6.05594 24.1494 5.77987 23.9459 5.57633C23.7424 5.37278 23.4663 5.25843 23.1784 5.25843C22.8906 5.25843 22.6145 5.37278 22.411 5.57633C22.2074 5.77987 22.0931 6.05594 22.0931 6.34379V7.42915C22.0931 7.71701 22.2074 7.99308 22.411 8.19662C22.6145 8.40016 22.8906 8.51451 23.1784 8.51451H25.3492C25.637 8.51451 25.9131 8.40016 26.1166 8.19662C26.3202 7.99308 26.4345 7.71701 26.4345 7.42915C26.4345 7.1413 26.3202 6.86523 26.1166 6.66169C25.9131 6.45814 25.637 6.34379 25.3492 6.34379Z" fill="#A51414"/>
</svg>
