<svg width="143" height="127" viewBox="0 0 143 127" fill="none" xmlns="http://www.w3.org/2000/svg">
<g clip-path="url(#clip0_3665_1322)">
<path d="M71.3583 1.77734L26.7466 29.2307C26.7466 29.2307 26.7466 85.8533 71.3583 116.738C115.97 85.8533 115.97 29.2307 115.97 29.2307L71.3583 1.77734Z" fill="#3F3D56"/>
<path opacity="0.04" d="M71.6246 1.77734L70.862 2.24663V116.203C71.1152 116.382 71.3684 116.561 71.6246 116.738C116.236 85.8533 116.236 29.2307 116.236 29.2307L71.6246 1.77734Z" fill="#A51414"/>
<g opacity="0.7">
<path opacity="0.7" d="M60.5581 57.4088L68.9681 65.118L79.3936 50.0781L83.5987 53.5824L68.9681 72.1264L57.0538 58.8105L60.5581 57.4088Z" fill="url(#paint0_linear_3665_1322)"/>
</g>
<path d="M62.543 57.8721L69.365 64.1256L79.0297 49.9128L82.4408 52.7554L69.365 69.8108L59.7004 59.0091L62.543 57.8721Z" fill="#A51414"/>
<path opacity="0.5" d="M27.3407 7.93243C27.204 7.87288 27.0939 7.76511 27.0315 7.62966C26.969 7.4942 26.9585 7.34051 27.0021 7.19784C27.0091 7.17597 27.0135 7.15334 27.0153 7.13043C27.0193 7.06507 27.0021 7.00016 26.9663 6.94532C26.9305 6.89048 26.878 6.84863 26.8165 6.82596C26.7551 6.8033 26.688 6.80103 26.6252 6.81948C26.5623 6.83794 26.5071 6.87614 26.4677 6.92843C26.4541 6.94698 26.4428 6.96707 26.434 6.98828C26.3744 7.12503 26.2666 7.23511 26.1312 7.29756C25.9957 7.36001 25.842 7.37047 25.6994 7.32695C25.6775 7.31991 25.6549 7.31548 25.632 7.31374C25.5666 7.30976 25.5017 7.32694 25.4468 7.36273C25.392 7.39853 25.3502 7.45103 25.3275 7.51247C25.3048 7.57391 25.3026 7.64102 25.321 7.70385C25.3395 7.76668 25.3777 7.8219 25.43 7.86132C25.4485 7.87488 25.4686 7.8862 25.4898 7.89505C25.6266 7.95461 25.7366 8.06237 25.7991 8.19783C25.8615 8.33328 25.872 8.48697 25.8285 8.62964C25.8214 8.65151 25.817 8.67414 25.8153 8.69706C25.8113 8.76242 25.8285 8.82733 25.8643 8.88217C25.9001 8.93701 25.9526 8.97886 26.014 9.00152C26.0754 9.02419 26.1425 9.02646 26.2054 9.008C26.2682 8.98955 26.3234 8.95134 26.3629 8.89905C26.3764 8.8805 26.3877 8.86041 26.3966 8.83921C26.4561 8.70245 26.5639 8.59238 26.6994 8.52993C26.8348 8.46748 26.9885 8.45701 27.1312 8.50053C27.153 8.50757 27.1757 8.51201 27.1986 8.51375C27.264 8.51773 27.3289 8.50054 27.3837 8.46475C27.4385 8.42896 27.4804 8.37645 27.5031 8.31501C27.5257 8.25357 27.528 8.18647 27.5095 8.12363C27.4911 8.0608 27.4529 8.00559 27.4006 7.96616C27.382 7.95261 27.3619 7.94128 27.3407 7.93243Z" fill="#4D8AF0"/>
<path opacity="0.5" d="M3.19068 61.6912C3.05392 61.6317 2.94385 61.5239 2.8814 61.3884C2.81895 61.253 2.80848 61.0993 2.852 60.9566C2.85904 60.9348 2.86348 60.9121 2.86522 60.8892C2.8692 60.8239 2.85202 60.7589 2.81622 60.7041C2.78043 60.6493 2.72792 60.6074 2.66648 60.5848C2.60504 60.5621 2.53794 60.5598 2.4751 60.5783C2.41227 60.5967 2.35706 60.6349 2.31763 60.6872C2.30408 60.7058 2.29275 60.7259 2.2839 60.7471C2.22435 60.8838 2.11658 60.9939 1.98113 61.0563C1.84567 61.1188 1.69198 61.1293 1.54931 61.0857C1.52744 61.0787 1.50481 61.0743 1.4819 61.0725C1.41654 61.0685 1.35163 61.0857 1.29679 61.1215C1.24195 61.1573 1.2001 61.2098 1.17744 61.2713C1.15477 61.3327 1.1525 61.3998 1.17095 61.4626C1.18941 61.5255 1.22761 61.5807 1.2799 61.6201C1.29846 61.6337 1.31854 61.645 1.33975 61.6538C1.4765 61.7134 1.58658 61.8212 1.64903 61.9566C1.71148 62.0921 1.72194 62.2458 1.67842 62.3884C1.67138 62.4103 1.66695 62.4329 1.66521 62.4558C1.66123 62.5212 1.67841 62.5861 1.7142 62.6409C1.75 62.6958 1.8025 62.7376 1.86394 62.7603C1.92538 62.783 1.99249 62.7852 2.05532 62.7668C2.11815 62.7483 2.17337 62.7101 2.21279 62.6578C2.22635 62.6393 2.23767 62.6192 2.24652 62.598C2.30608 62.4612 2.41384 62.3512 2.5493 62.2887C2.68475 62.2263 2.83844 62.2158 2.98111 62.2593C3.00298 62.2664 3.02561 62.2708 3.04852 62.2725C3.11389 62.2765 3.1788 62.2593 3.23364 62.2235C3.28847 62.1877 3.33032 62.1352 3.35299 62.0738C3.37565 62.0124 3.37792 61.9452 3.35947 61.8824C3.34101 61.8196 3.30281 61.7644 3.25052 61.7249C3.23197 61.7114 3.21188 61.7001 3.19068 61.6912Z" fill="#4D8AF0"/>
<path opacity="0.5" d="M123.794 43.0069C124.342 43.0069 124.786 42.5626 124.786 42.0144C124.786 41.4663 124.342 41.022 123.794 41.022C123.245 41.022 122.801 41.4663 122.801 42.0144C122.801 42.5626 123.245 43.0069 123.794 43.0069Z" fill="#F55F44"/>
<path opacity="0.5" d="M20.0807 113.968C20.6289 113.968 21.0732 113.524 21.0732 112.976C21.0732 112.428 20.6289 111.983 20.0807 111.983C19.5326 111.983 19.0883 112.428 19.0883 112.976C19.0883 113.524 19.5326 113.968 20.0807 113.968Z" fill="#F55F44"/>
<path opacity="0.5" d="M140.665 81.2169C141.214 81.2169 141.658 80.7725 141.658 80.2244C141.658 79.6763 141.214 79.2319 140.665 79.2319C140.117 79.2319 139.673 79.6763 139.673 80.2244C139.673 80.7725 140.117 81.2169 140.665 81.2169Z" fill="#F55F44"/>
<path opacity="0.5" d="M116.497 12.7293C116.361 12.6698 116.251 12.562 116.188 12.4265C116.126 12.2911 116.115 12.1374 116.159 11.9947C116.166 11.9728 116.17 11.9502 116.172 11.9273C116.176 11.8619 116.159 11.797 116.123 11.7422C116.087 11.6874 116.035 11.6455 115.973 11.6228C115.912 11.6002 115.845 11.5979 115.782 11.6164C115.719 11.6348 115.664 11.673 115.624 11.7253C115.611 11.7439 115.599 11.7639 115.591 11.7852C115.531 11.9219 115.423 12.032 115.288 12.0944C115.152 12.1569 114.999 12.1673 114.856 12.1238C114.834 12.1168 114.812 12.1124 114.789 12.1106C114.723 12.1066 114.658 12.1238 114.604 12.1596C114.549 12.1954 114.507 12.2479 114.484 12.3094C114.462 12.3708 114.459 12.4379 114.478 12.5007C114.496 12.5636 114.534 12.6188 114.587 12.6582C114.605 12.6718 114.625 12.6831 114.646 12.6919C114.783 12.7515 114.893 12.8592 114.956 12.9947C115.018 13.1302 115.029 13.2839 114.985 13.4265C114.978 13.4484 114.974 13.471 114.972 13.4939C114.968 13.5593 114.985 13.6242 115.021 13.679C115.057 13.7339 115.109 13.7757 115.171 13.7984C115.232 13.8211 115.299 13.8233 115.362 13.8049C115.425 13.7864 115.48 13.7482 115.519 13.6959C115.533 13.6774 115.544 13.6573 115.553 13.6361C115.613 13.4993 115.721 13.3893 115.856 13.3268C115.991 13.2644 116.145 13.2539 116.288 13.2974C116.31 13.3045 116.332 13.3089 116.355 13.3106C116.421 13.3146 116.485 13.2974 116.54 13.2616C116.595 13.2258 116.637 13.1733 116.66 13.1119C116.682 13.0504 116.685 12.9833 116.666 12.9205C116.648 12.8577 116.609 12.8025 116.557 12.763C116.539 12.7495 116.519 12.7382 116.497 12.7293Z" fill="#4D8AF0"/>
<path opacity="0.5" d="M133.038 116.607C132.902 116.548 132.792 116.44 132.729 116.305C132.667 116.169 132.656 116.016 132.7 115.873C132.707 115.851 132.711 115.828 132.713 115.805C132.717 115.74 132.7 115.675 132.664 115.62C132.628 115.566 132.576 115.524 132.514 115.501C132.453 115.478 132.386 115.476 132.323 115.495C132.26 115.513 132.205 115.551 132.165 115.603C132.152 115.622 132.141 115.642 132.132 115.663C132.072 115.8 131.964 115.91 131.829 115.973C131.693 116.035 131.54 116.046 131.397 116.002C131.375 115.995 131.353 115.991 131.33 115.989C131.264 115.985 131.199 116.002 131.145 116.038C131.09 116.074 131.048 116.126 131.025 116.188C131.003 116.249 131 116.316 131.019 116.379C131.037 116.442 131.075 116.497 131.128 116.536C131.146 116.55 131.166 116.561 131.188 116.57C131.324 116.63 131.434 116.737 131.497 116.873C131.559 117.008 131.57 117.162 131.526 117.305C131.519 117.327 131.515 117.349 131.513 117.372C131.509 117.437 131.526 117.502 131.562 117.557C131.598 117.612 131.65 117.654 131.712 117.677C131.773 117.699 131.84 117.702 131.903 117.683C131.966 117.665 132.021 117.626 132.061 117.574C132.074 117.556 132.085 117.535 132.094 117.514C132.154 117.378 132.262 117.267 132.397 117.205C132.533 117.143 132.686 117.132 132.829 117.176C132.851 117.183 132.873 117.187 132.896 117.189C132.962 117.193 133.027 117.176 133.081 117.14C133.136 117.104 133.178 117.052 133.201 116.99C133.223 116.929 133.226 116.862 133.207 116.799C133.189 116.736 133.151 116.681 133.098 116.641C133.08 116.628 133.06 116.616 133.038 116.607Z" fill="#4D8AF0"/>
<path opacity="0.5" d="M2.03281 30.263C1.89606 30.2034 1.78598 30.0957 1.72353 29.9602C1.66108 29.8248 1.65062 29.6711 1.69413 29.5284C1.70118 29.5065 1.70561 29.4839 1.70735 29.461C1.71133 29.3956 1.69415 29.3307 1.65835 29.2759C1.62256 29.221 1.57005 29.1792 1.50861 29.1565C1.44717 29.1339 1.38007 29.1316 1.31724 29.15C1.2544 29.1685 1.19919 29.2067 1.15977 29.259C1.14621 29.2776 1.13489 29.2976 1.12604 29.3188C1.06648 29.4556 0.958715 29.5657 0.823259 29.6281C0.687804 29.6906 0.534115 29.701 0.391445 29.6575C0.369573 29.6505 0.346947 29.646 0.324035 29.6443C0.258669 29.6403 0.19376 29.6575 0.138922 29.6933C0.0840834 29.7291 0.0422323 29.7816 0.0195679 29.843C-0.00309647 29.9045 -0.00536935 29.9716 0.0130864 30.0344C0.0315421 30.0973 0.0697454 30.1525 0.122036 30.1919C0.140589 30.2055 0.160676 30.2168 0.181882 30.2256C0.318634 30.2852 0.428712 30.3929 0.491162 30.5284C0.553613 30.6639 0.564073 30.8175 0.520557 30.9602C0.513515 30.9821 0.50908 31.0047 0.507341 31.0276C0.503362 31.093 0.520542 31.1579 0.556336 31.2127C0.592131 31.2676 0.644637 31.3094 0.706076 31.3321C0.767516 31.3548 0.834622 31.357 0.897454 31.3386C0.960286 31.3201 1.0155 31.2819 1.05493 31.2296C1.06848 31.2111 1.07981 31.191 1.08866 31.1698C1.14821 31.033 1.25598 30.9229 1.39143 30.8605C1.52689 30.798 1.68058 30.7876 1.82325 30.8311C1.84512 30.8381 1.86774 30.8426 1.89066 30.8443C1.95602 30.8483 2.02093 30.8311 2.07577 30.7953C2.13061 30.7595 2.17246 30.707 2.19512 30.6456C2.21778 30.5841 2.22006 30.517 2.2016 30.4542C2.18315 30.3914 2.14494 30.3362 2.09265 30.2967C2.0741 30.2832 2.05401 30.2719 2.03281 30.263Z" fill="#4D8AF0"/>
<path opacity="0.5" d="M13.1335 47.9693C13.6816 47.9693 14.126 47.525 14.126 46.9768C14.126 46.4287 13.6816 45.9844 13.1335 45.9844C12.5854 45.9844 12.141 46.4287 12.141 46.9768C12.141 47.525 12.5854 47.9693 13.1335 47.9693Z" fill="#A51414"/>
<path opacity="0.5" d="M141.162 55.909C141.71 55.909 142.154 55.4647 142.154 54.9165C142.154 54.3684 141.71 53.9241 141.162 53.9241C140.614 53.9241 140.169 54.3684 140.169 54.9165C140.169 55.4647 140.614 55.909 141.162 55.909Z" fill="#A51414"/>
<g opacity="0.5">
<path opacity="0.5" d="M96.9969 0H96.5007V2.81199H96.9969V0Z" fill="#A51414"/>
<path opacity="0.5" d="M98.1548 1.65395V1.15771L95.3428 1.15771V1.65395L98.1548 1.65395Z" fill="#A51414"/>
</g>
<g opacity="0.5">
<path opacity="0.5" d="M98.8165 110.164H98.3202V112.976H98.8165V110.164Z" fill="#A51414"/>
<path opacity="0.5" d="M99.9743 111.818V111.322H97.1623V111.818H99.9743Z" fill="#A51414"/>
</g>
<g opacity="0.5">
<path opacity="0.5" d="M4.86296 116.119H4.36673V118.931H4.86296V116.119Z" fill="#A51414"/>
<path opacity="0.5" d="M6.02087 117.773V117.277H3.20888V117.773H6.02087Z" fill="#A51414"/>
</g>
<g opacity="0.5">
<path opacity="0.5" d="M117.839 65.5027H117.343V68.3147H117.839V65.5027Z" fill="#A51414"/>
<path opacity="0.5" d="M118.997 67.1569V66.6606H116.185V67.1569H118.997Z" fill="#A51414"/>
</g>
<path opacity="0.5" d="M131.602 20.3485L132.668 21.3255L134.178 19.105L134.711 19.5491L132.668 22.2137L131.158 20.5262L131.602 20.3485Z" fill="#A51414"/>
<path d="M101.177 39.5781L97.5005 39.7207L97.6838 44.4475L101.36 44.3049L101.177 39.5781Z" fill="#A51414"/>
<path d="M84.5928 56.1323C84.5928 56.1323 79.5016 53.6998 79.5831 55.8006C79.6645 57.9014 84.715 59.2835 84.715 59.2835L84.5928 56.1323Z" fill="#FFB9B9"/>
<path d="M87.386 73.9076C87.386 73.9076 84.9841 79.7866 84.0966 84.0289C83.2092 88.2712 81.8576 94.1094 83.5961 98.2499C85.3346 102.39 90.2774 114.559 90.3283 115.872C90.3792 117.185 89.9049 118.519 90.9553 118.478C92.0057 118.437 97.7218 116.638 97.9538 115.84C98.1859 115.042 96.0036 113.022 96.0036 113.022L90.615 96.1368L96.2372 85.1361L100.292 101.547L101.087 122.03C101.087 122.03 104.985 120.827 105.551 121.857C105.551 121.857 107.297 119.422 107.519 118.362C107.741 117.301 106.694 97.0912 106.694 97.0912C106.694 97.0912 110.273 74.0721 107.384 74.1841C104.496 74.2961 93.1814 67.3711 87.386 73.9076Z" fill="#A51414"/>
<path d="M90.9146 117.427C90.9146 117.427 88.2501 123.317 87.9977 123.589C87.7453 123.862 86.0089 126.559 87.3219 126.509C88.6349 126.458 91.7351 125.022 94.0171 122.83C96.299 120.638 99.3076 116.839 99.0348 116.587C98.762 116.334 96.8933 115.618 96.8933 115.618L90.9146 117.427Z" fill="#575A89"/>
<path d="M101.561 120.696C101.561 120.696 101.4 123.333 100.916 124.403C100.431 125.474 100.492 127.05 101.805 126.999C103.118 126.948 106.512 126.29 106.512 126.29C106.512 126.29 106.713 124.704 106.441 124.452C106.168 124.2 105.005 121.352 105.5 120.544C105.995 119.736 101.561 120.696 101.561 120.696Z" fill="#575A89"/>
<path d="M103.504 35.1487C103.504 35.1487 106.303 39.511 107.394 40.5207C108.485 41.5303 105.415 43.7533 105.415 43.7533L99.9211 44.4923C99.9211 44.4923 99.9902 39.4928 99.7072 38.9778C99.4243 38.4628 103.504 35.1487 103.504 35.1487Z" fill="#FFB9B9"/>
<path d="M98.7281 40.8566C98.7281 40.8566 99.8599 42.9166 100.91 42.8759C101.961 42.8351 107.394 40.5205 107.626 39.7225C107.858 38.9246 109.425 45.4386 109.425 45.4386L96.1311 68.8345L92.8883 66.5933L94.4595 52.8567L95.75 45.4429L98.7281 40.8566Z" fill="#A51414"/>
<path d="M108.116 61.795C107.586 62.9043 107.255 64.0612 107.301 65.2455C107.303 65.298 107.305 65.3505 107.309 65.4029C107.435 67.8334 108.331 70.6442 108.652 72.6884C108.885 74.1547 108.819 75.225 107.96 75.4766C105.88 76.0832 108.264 76.5168 100.215 79.1958C92.166 81.8749 90.7614 79.5624 90.741 79.0372C90.7206 78.512 91.8809 74.5222 91.6081 74.2698C91.3353 74.0174 87.7913 77.5737 86.7206 77.0892C85.6498 76.6047 86.5984 73.938 86.5984 73.938C86.5984 73.938 89.0105 68.3217 88.9596 67.0087C88.9087 65.6957 92.6134 59.5032 92.6134 59.5032L95.1332 43.1C95.1332 43.1 96.1022 40.9585 97.405 40.645C98.7078 40.3314 99.7887 41.0785 99.7887 41.0785L97.6086 45.8969L95.3085 54.4018L95.6933 57.5428C95.6933 57.5428 98.368 51.9163 100.125 49.7442C101.881 47.5722 105.627 42.4301 105.627 42.4301C105.627 42.4301 106.501 39.4796 105.841 38.5978C105.181 37.7135 108.595 37.5811 110.05 41.2066C110.822 43.128 112.074 45.9934 112.859 48.6613C113.558 51.0248 113.888 53.2343 113.196 54.4972C112.137 56.4265 109.474 58.9625 108.116 61.795Z" fill="#575A89"/>
<path opacity="0.1" d="M113.196 54.4971C112.137 56.4264 109.474 58.9624 108.116 61.7948C107.762 60.5173 107.329 59.1955 107.329 59.1955C107.329 59.1955 105.67 50.3181 110.578 48.0238C111.391 47.9452 112.204 48.1724 112.859 48.6612C113.558 51.0247 113.888 53.2342 113.196 54.4971Z" fill="black"/>
<path d="M93.7125 53.9377L89.5517 55.1511L83.7746 55.3751L83.1802 60.395L92.6744 61.0788C92.6744 61.0788 95.0458 54.412 93.7125 53.9377Z" fill="#575A89"/>
<path d="M100.497 70.8162C100.497 70.8162 94.931 71.7397 96.2014 73.4147C97.4719 75.0898 102.403 73.3288 102.403 73.3288L100.497 70.8162Z" fill="#FFB9B9"/>
<path opacity="0.1" d="M107.309 65.4028C107.435 67.8333 108.331 70.6441 108.652 72.6883C106.879 74.3665 105.192 75.8468 104.557 75.8715C103.244 75.9224 101.133 75.7413 100.355 76.0344C99.5777 76.3276 99.1216 71.3484 99.1216 71.3484C99.1216 71.3484 99.5857 69.7524 101.656 68.8832C103.053 68.2951 105.732 66.7001 107.309 65.4028Z" fill="black"/>
<path d="M110.517 46.4484C110.517 46.4484 114.96 45.7501 114.72 53.1232C114.48 60.4963 115.189 65.2027 113.401 66.5869C111.614 67.9712 105.809 74.2451 104.496 74.2961C103.183 74.347 101.072 74.1658 100.294 74.459C99.5165 74.7521 99.0604 69.773 99.0604 69.773C99.0604 69.773 99.5245 68.177 101.595 67.3078C103.665 66.4385 108.542 63.3564 108.502 62.3061C108.461 61.2557 107.268 57.62 107.268 57.62C107.268 57.62 105.609 48.7426 110.517 46.4484Z" fill="#575A89"/>
<path d="M99.585 41.6079C102.778 41.6079 105.366 39.0194 105.366 35.8264C105.366 32.6334 102.778 30.0449 99.585 30.0449C96.3919 30.0449 93.8035 32.6334 93.8035 35.8264C93.8035 39.0194 96.3919 41.6079 99.585 41.6079Z" fill="#FFB9B9"/>
<path d="M95.6922 27.5402C95.5527 27.6603 95.3857 27.7441 95.2061 27.7841C95.1159 27.8002 95.023 27.7799 94.9476 27.7278C94.8723 27.6756 94.8207 27.5958 94.8041 27.5057C94.6718 27.78 94.5226 28.0723 94.2525 28.2131C93.9824 28.3539 93.5648 28.2358 93.5259 27.9338C93.4865 28.1631 93.385 28.3773 93.2325 28.5531C93.065 28.7128 92.7611 28.7532 92.6148 28.5737C92.7331 29.2201 92.6601 29.8847 92.6972 30.5408C92.7344 31.1968 92.9093 31.8923 93.4049 32.3236C94.1277 32.9527 95.2147 32.7975 96.1655 32.6783C96.3093 32.6481 96.4585 32.6563 96.5981 32.702C96.9541 32.8536 96.938 33.3492 96.9428 33.7362C96.9718 34.4151 97.2405 35.0618 97.7012 35.5614C98.1619 36.061 98.7847 36.3812 99.459 36.4651C99.8364 36.5233 100.222 36.4293 100.53 36.2038C100.8 35.9749 100.938 35.602 101.247 35.4301C101.75 35.1505 102.36 35.5583 102.728 36.001C103.096 36.4438 103.459 36.9884 104.029 37.0695C104.782 37.1766 105.357 36.4085 105.638 35.7012C106.027 34.7098 106.213 33.6506 106.186 32.5862C106.158 31.5217 105.918 30.4734 105.48 29.5032C103.906 26.0724 98.5294 25.5298 95.6922 27.5402Z" fill="#2F2E41"/>
</g>
<defs>
<linearGradient id="paint0_linear_3665_1322" x1="57.0538" y1="61.1023" x2="83.5987" y2="61.1023" gradientUnits="userSpaceOnUse">
<stop stop-color="#808080" stop-opacity="0.25"/>
<stop offset="0.53514" stop-color="#808080" stop-opacity="0.12"/>
<stop offset="1" stop-color="#808080" stop-opacity="0.1"/>
</linearGradient>
<clipPath id="clip0_3665_1322">
<rect width="142.154" height="127" fill="white"/>
</clipPath>
</defs>
</svg>
