<svg width="190" height="28" viewBox="0 0 190 28" fill="none" xmlns="http://www.w3.org/2000/svg">
<mask id="mask0_3791_1771" style="mask-type:luminance" maskUnits="userSpaceOnUse" x="0" y="0" width="190" height="28">
<path d="M190 0H0V28H190V0Z" fill="white"/>
</mask>
<g mask="url(#mask0_3791_1771)">
<path d="M39.3634 6.17444C39.5409 6.17444 39.715 6.12052 39.8662 6.01868C40.0173 5.91684 40.1398 5.77108 40.2198 5.59761L42.0603 1.6064C42.1343 1.44632 42.1695 1.26815 42.1627 1.0889C42.1559 0.90965 42.1072 0.735312 42.0213 0.582538C41.9354 0.429763 41.8151 0.303654 41.6721 0.216254C41.529 0.128854 41.3678 0.0830825 41.2039 0.0833117H27.7981C27.7032 0.0474861 27.6037 0.028429 27.5033 0.0268555H23.0388C22.7847 0.0275055 22.5412 0.138478 22.3618 0.335429C22.1823 0.532379 22.0815 0.799226 22.0815 1.07743V26.9331C22.0815 27.2118 22.1826 27.479 22.3626 27.676C22.5425 27.873 22.7866 27.9837 23.041 27.9837H41.2039C41.3678 27.9839 41.529 27.9382 41.6721 27.8508C41.8151 27.7634 41.9354 27.6373 42.0213 27.4845C42.1072 27.3317 42.1559 27.1574 42.1627 26.9781C42.1695 26.7989 42.1343 26.6207 42.0603 26.4606L40.2198 22.4694C40.14 22.2958 40.0176 22.1499 39.8664 22.048C39.7151 21.9461 39.541 21.8923 39.3634 21.8926H28.4628V16.7919H38.9992C39.1251 16.7921 39.2498 16.765 39.3662 16.7124C39.4826 16.6597 39.5884 16.5824 39.6775 16.485C39.7667 16.3875 39.8373 16.2718 39.8856 16.1444C39.9338 16.017 39.9586 15.8804 39.9586 15.7425V11.863C39.9586 11.5844 39.8575 11.3172 39.6776 11.1201C39.4977 10.9231 39.2536 10.8124 38.9992 10.8124H28.4628V6.17444H39.3634Z" fill="#A51414"/>
<path d="M67.926 0.0102546H63.8639C63.4527 0.0101709 63.0475 0.118538 62.6827 0.326188C62.3178 0.533837 62.004 0.834658 61.7678 1.2032L56.253 9.8189L50.7371 1.2032C50.5015 0.835433 50.1886 0.53508 49.8248 0.327463C49.461 0.119847 49.0569 0.0110531 48.6467 0.0102546H44.5745C44.4485 0.0100933 44.3238 0.0371165 44.2074 0.089779C44.091 0.142442 43.9852 0.21971 43.8961 0.317168C43.807 0.414625 43.7363 0.530358 43.688 0.657751C43.6398 0.785144 43.615 0.921698 43.615 1.0596V26.903C43.615 27.0409 43.6398 27.1775 43.688 27.3049C43.7363 27.4323 43.807 27.548 43.8961 27.6455C43.9852 27.7429 44.091 27.8202 44.2074 27.8729C44.3238 27.9255 44.4485 27.9526 44.5745 27.9524H49.039C49.165 27.9526 49.2898 27.9255 49.4062 27.8729C49.5227 27.8202 49.6286 27.743 49.7178 27.6456C49.807 27.5481 49.8778 27.4324 49.9261 27.305C49.9745 27.1776 49.9994 27.041 49.9996 26.903V10.154L50.9221 11.5506L54.2108 16.5495C54.4475 16.9128 54.76 17.2089 55.1224 17.4132C55.4847 17.6175 55.8864 17.7241 56.294 17.7241C56.7015 17.7241 57.1032 17.6175 57.4655 17.4132C57.8279 17.2089 58.1404 16.9128 58.3771 16.5495L61.649 11.4537L62.5087 10.154V26.903C62.5087 27.0409 62.5336 27.1775 62.5818 27.3049C62.63 27.4323 62.7007 27.548 62.7898 27.6455C62.8789 27.7429 62.9847 27.8202 63.1011 27.8729C63.2175 27.9255 63.3423 27.9526 63.4682 27.9524H67.926C68.0519 27.9526 68.1767 27.9255 68.2931 27.8729C68.4095 27.8202 68.5153 27.7429 68.6044 27.6455C68.6935 27.548 68.7642 27.4323 68.8124 27.3049C68.8607 27.1775 68.8855 27.0409 68.8855 26.903V1.0596C68.8855 0.921698 68.8607 0.785144 68.8124 0.657751C68.7642 0.530358 68.6935 0.414625 68.6044 0.317168C68.5153 0.21971 68.4095 0.142442 68.2931 0.089779C68.1767 0.0371165 68.0519 0.0100933 67.926 0.0102546Z" fill="#A51414"/>
<path d="M75.7566 0.0268562H71.2887C71.1628 0.0266949 71.038 0.0537181 70.9216 0.106381C70.8052 0.159043 70.6994 0.236312 70.6103 0.333769C70.5212 0.431226 70.4505 0.54696 70.4023 0.674353C70.354 0.801746 70.3292 0.938299 70.3292 1.07621V26.9196C70.3292 27.0575 70.354 27.1941 70.4023 27.3215C70.4505 27.4489 70.5212 27.5646 70.6103 27.6621C70.6994 27.7595 70.8052 27.8368 70.9216 27.8895C71.038 27.9421 71.1628 27.9692 71.2887 27.969H75.7532C75.8792 27.9692 76.0039 27.9421 76.1203 27.8895C76.2367 27.8368 76.3425 27.7595 76.4316 27.6621C76.5207 27.5646 76.5914 27.4489 76.6396 27.3215C76.6879 27.1941 76.7127 27.0575 76.7127 26.9196V1.07621C76.7127 0.938299 76.6879 0.801746 76.6396 0.674353C76.5914 0.54696 76.5207 0.431226 76.4316 0.333769C76.3425 0.236312 76.2367 0.159043 76.1203 0.106381C76.0039 0.0537181 75.8792 0.0266949 75.7532 0.0268562" fill="#A51414"/>
<path d="M101.08 26.0114L91.709 12.2729L91.7572 12.2202L100.462 2.09242C100.542 1.99884 100.609 1.8925 100.66 1.777C100.684 1.72471 100.703 1.67055 100.719 1.615C100.77 1.43142 100.782 1.23715 100.752 1.04781C100.723 0.858478 100.653 0.679365 100.549 0.524883C100.445 0.370401 100.309 0.244862 100.152 0.158364C99.9956 0.0718658 99.8226 0.0268239 99.6472 0.0268613H95.1524C94.807 0.0260893 94.465 0.101797 94.147 0.249435C93.829 0.397072 93.5415 0.613591 93.3018 0.885977L85.4556 9.86497C85.4298 9.89442 85.4074 9.92633 85.3827 9.95702L84.5432 10.918V1.13267C84.5429 0.854249 84.4417 0.587346 84.2618 0.39059C84.0819 0.193834 83.838 0.0833173 83.5837 0.0833175H79.117C78.991 0.0831562 78.8663 0.110179 78.7499 0.162842C78.6335 0.215504 78.5277 0.292773 78.4386 0.39023C78.3495 0.487688 78.2788 0.603421 78.2305 0.730814C78.1823 0.858207 78.1575 0.994761 78.1575 1.13267V26.9196C78.1575 27.0576 78.1823 27.1941 78.2305 27.3215C78.2788 27.4489 78.3495 27.5646 78.4386 27.6621C78.5277 27.7595 78.6335 27.8368 78.7499 27.8895C78.8663 27.9421 78.991 27.9692 79.117 27.969H83.5557C83.6816 27.9692 83.8064 27.9421 83.9228 27.8895C84.0392 27.8368 84.145 27.7595 84.2341 27.6621C84.3232 27.5646 84.3939 27.4489 84.4421 27.3215C84.4903 27.1941 84.5152 27.0576 84.5152 26.9196V13.6905L85.0229 14.406C85.0851 14.5176 85.1529 14.6253 85.2258 14.7288L88.7566 19.7031L93.8769 26.9135C94.1158 27.2501 94.4218 27.5227 94.7714 27.7105C95.121 27.8983 95.5051 27.9963 95.8945 27.9972H100.177C100.331 27.9976 100.484 27.9633 100.625 27.8963C100.767 27.8293 100.894 27.7312 100.999 27.6079C101.104 27.4847 101.185 27.3391 101.237 27.1801C101.288 27.0211 101.309 26.8523 101.298 26.684C101.287 26.4402 101.209 26.2057 101.074 26.0114" fill="#202128"/>
<path d="M121.308 1.74258C121.107 1.24798 120.779 0.827916 120.364 0.533211C119.949 0.238506 119.465 0.0817923 118.97 0.0820315H115.146C114.651 0.0818493 114.167 0.238865 113.751 0.534042C113.336 0.82922 113.009 1.24988 112.808 1.74503L102.845 26.274C102.771 26.4603 102.74 26.6638 102.755 26.8663C102.771 27.0688 102.832 27.264 102.933 27.4343C103.034 27.6047 103.172 27.7448 103.335 27.8422C103.498 27.9396 103.681 27.9911 103.866 27.9923H107.517C108.008 27.9928 108.489 27.8384 108.903 27.5474C109.316 27.2564 109.644 26.8411 109.847 26.3513L111.247 22.9677H123.161L124.551 26.3464C124.754 26.8384 125.082 27.2559 125.496 27.5488C125.91 27.8416 126.392 27.9973 126.885 27.9972H130.272C130.458 27.9962 130.64 27.9448 130.803 27.8475C130.966 27.7502 131.105 27.6101 131.206 27.4398C131.308 27.2694 131.369 27.0741 131.384 26.8715C131.399 26.6689 131.369 26.4653 131.294 26.2789L121.308 1.74258ZM113.763 16.7918L117.159 8.46455L120.634 16.7918H113.763Z" fill="#202128"/>
<path d="M155.535 9.22032C155.586 8.02196 155.412 6.82489 155.023 5.70326C154.634 4.58163 154.039 3.55931 153.275 2.69963C151.708 1.04034 149.619 0.103583 147.44 0.0830078H133.793C133.539 0.0830076 133.295 0.193525 133.115 0.39028C132.935 0.587036 132.834 0.853939 132.833 1.13236V26.9193C132.834 27.1978 132.935 27.4647 133.115 27.6614C133.295 27.8582 133.539 27.9687 133.793 27.9687H138.233C138.359 27.9688 138.483 27.9418 138.6 27.8892C138.716 27.8365 138.822 27.7592 138.911 27.6618C139 27.5643 139.071 27.4486 139.119 27.3212C139.167 27.1938 139.192 27.0572 139.192 26.9193V18.3576H142.196L147.62 26.7819C147.857 27.1485 148.17 27.4477 148.534 27.6542C148.898 27.8607 149.302 27.9686 149.712 27.9687H154.01C154.214 27.968 154.414 27.9065 154.588 27.7908C154.762 27.6751 154.904 27.5096 154.999 27.3121C155.094 27.1146 155.138 26.8925 155.126 26.6697C155.114 26.447 155.047 26.232 154.932 26.0479L149.708 17.7698C153.505 16.6709 155.446 13.8211 155.53 9.22032M146.899 12.1818H139.215V6.17414H146.697C147.362 6.25941 147.97 6.63028 148.387 7.20546C148.803 7.78063 148.994 8.51315 148.918 9.24241C148.97 9.91755 148.793 10.5899 148.421 11.1312C148.049 11.6725 147.507 12.0448 146.901 12.1769" fill="#202128"/>
<path d="M178.222 0.0551765H157.933C157.808 0.0550152 157.683 0.0820384 157.566 0.134701C157.45 0.187363 157.344 0.264632 157.255 0.362089C157.166 0.459547 157.095 0.57528 157.047 0.702673C156.999 0.830066 156.974 0.96662 156.974 1.10453V5.01228C156.974 5.29091 157.075 5.55812 157.255 5.75515C157.435 5.95217 157.679 6.06285 157.933 6.06285H164.634V26.9197C164.634 27.0576 164.659 27.1942 164.707 27.3216C164.755 27.449 164.826 27.5647 164.915 27.6622C165.004 27.7596 165.11 27.8369 165.227 27.8896C165.343 27.9422 165.468 27.9692 165.594 27.9691H170.058C170.184 27.9692 170.309 27.9422 170.425 27.8896C170.542 27.8369 170.647 27.7596 170.737 27.6622C170.826 27.5647 170.896 27.449 170.945 27.3216C170.993 27.1942 171.018 27.0576 171.018 26.9197V6.06285H175.777C176.263 6.06291 176.738 5.91165 177.148 5.62673C177.558 5.34182 177.886 4.93501 178.093 4.45385L179.23 1.80041C179.31 1.614 179.345 1.40879 179.333 1.2036C179.321 0.998414 179.262 0.799834 179.161 0.626097C179.061 0.452359 178.922 0.309032 178.758 0.209275C178.594 0.109519 178.409 0.0565306 178.222 0.0551765Z" fill="#202128"/>
<path d="M85.4545 9.86036L93.3007 0.875235C93.5404 0.602849 93.8279 0.38633 94.1459 0.238693C94.4639 0.0910551 94.8059 0.0153471 95.1513 0.0161191H99.6472C99.8658 0.0162345 100.08 0.0863203 100.262 0.217751C100.445 0.349182 100.588 0.536223 100.675 0.755853C100.762 0.975484 100.788 1.21812 100.751 1.4539C100.713 1.68968 100.614 1.90832 100.464 2.08291L91.7584 12.2119H91.6564L101.081 26.0363C101.206 26.2186 101.282 26.4354 101.3 26.6625C101.319 26.8895 101.28 27.1177 101.187 27.3215C101.094 27.5254 100.95 27.6969 100.773 27.8167C100.596 27.9365 100.392 28 100.184 28H95.9001C95.5107 27.9991 95.1266 27.901 94.777 27.7132C94.4274 27.5255 94.1215 27.2529 93.8825 26.9163L85.2314 14.723C84.7299 14.0182 84.4766 13.1395 84.5178 12.2472C84.5589 11.3549 84.8918 10.5086 85.4556 9.86282" fill="#393C49"/>
<path d="M85.4545 9.86036L93.3007 0.875235C93.5403 0.602849 93.8278 0.38633 94.1458 0.238693C94.4639 0.0910551 94.8059 0.0153471 95.1513 0.0161191H99.6472C99.8658 0.0162345 100.08 0.0863204 100.262 0.217751C100.445 0.349182 100.588 0.536223 100.675 0.755854C100.762 0.975484 100.788 1.21812 100.751 1.4539C100.713 1.68968 100.614 1.90832 100.464 2.08291L91.7583 12.2119L88.8373 15.2949C88.5186 15.6738 88.2967 16.1379 88.1939 16.6406C88.0912 17.1433 88.1113 17.6667 88.2522 18.1582L88.7577 19.6985L85.2269 14.7205C84.7254 14.0158 84.4721 13.137 84.5132 12.2448C84.5544 11.3525 84.8873 10.5062 85.4511 9.86036" fill="#202128"/>
<path d="M8.53673 6.0324H16.6071C17.0945 6.03321 17.572 5.8818 17.9836 5.59593C18.3952 5.31007 18.7237 4.90161 18.9308 4.41848L20.0718 1.76013C20.1526 1.57282 20.1888 1.36616 20.177 1.15941C20.1651 0.952658 20.1057 0.752548 20.0042 0.57772C19.9027 0.402893 19.7625 0.259036 19.5966 0.159552C19.4306 0.0600683 19.2444 0.00819495 19.0552 0.00876466H7.66804C6.72588 -0.000955969 5.78761 0.142146 4.88374 0.433413C1.80279 1.45781 0.178617 3.90097 0.0112305 7.7629H6.44066C6.4974 7.39478 6.64591 7.05098 6.86982 6.76944C7.09372 6.48789 7.38431 6.27955 7.70951 6.1674C7.97641 6.07193 8.25599 6.02711 8.53673 6.0324Z" fill="#A51414"/>
<path d="M20.797 18.6119C20.8755 17.0527 20.4739 15.5097 19.6565 14.23C18.8392 12.9503 17.6533 12.0079 16.2888 11.5536C15.1672 11.1147 13.9837 10.8957 12.7927 10.9069H8.45936C8.01453 10.9216 7.57748 10.7768 7.21469 10.4946C6.85191 10.2123 6.58326 9.80806 6.44961 9.34326H0C0.113584 13.4989 2.37928 15.9814 6.79708 16.7906H11.9274C12.2744 16.785 12.6199 16.8426 12.9497 16.9612C13.3147 17.0701 13.6433 17.2918 13.8963 17.5998C14.1493 17.9077 14.3161 18.2889 14.3765 18.6978H20.797V18.6119Z" fill="#B23939"/>
<path d="M12.1058 21.9457H4.16874C3.67776 21.9457 3.19708 22.0999 2.78379 22.3901C2.37051 22.6803 2.042 23.0943 1.83728 23.583L0.716391 26.2573C0.637751 26.4444 0.603394 26.6502 0.616488 26.8557C0.629582 27.0612 0.689705 27.2598 0.791316 27.4332C0.892927 27.6065 1.03276 27.7491 1.19792 27.8477C1.36308 27.9464 1.54827 27.9979 1.7364 27.9976H13.1572C14.0745 28.0069 14.9881 27.8684 15.8686 27.5865C18.8972 26.5817 20.5281 24.1455 20.7613 20.2778H14.2971C14.215 20.6214 14.0573 20.9377 13.8376 21.1989C13.618 21.4602 13.3431 21.6585 13.0372 21.7764C12.738 21.8945 12.4216 21.9519 12.1035 21.9457" fill="#A51414"/>
<path d="M183.582 0.629609V5.12279H182.981V0.629609H181.674V0H184.889V0.629609H183.582Z" fill="#202128"/>
<path d="M186.118 5.12279H185.518V0H186.118L187.749 3.11982H187.775L189.399 0H190V5.12279H189.399V2.08642L189.425 1.22731H189.399L187.935 4.03907H187.582L186.118 1.22731H186.093L186.118 2.08642V5.12279Z" fill="#202128"/>
</g>
</svg>
