<svg width="17" height="18" viewBox="0 0 17 18" fill="none" xmlns="http://www.w3.org/2000/svg">
<path d="M15.2167 18L9.44167 11.7C8.98333 12.1 8.45625 12.4167 7.86042 12.65C7.26458 12.8833 6.63056 13 5.95833 13C4.29306 13 2.88368 12.3708 1.73021 11.1125C0.576736 9.85417 0 8.31667 0 6.5C0 4.68333 0.576736 3.14583 1.73021 1.8875C2.88368 0.629167 4.29306 0 5.95833 0C7.62361 0 9.03299 0.629167 10.1865 1.8875C11.3399 3.14583 11.9167 4.68333 11.9167 6.5C11.9167 7.23333 11.8097 7.925 11.5958 8.575C11.3819 9.225 11.0917 9.8 10.725 10.3L16.5 16.6L15.2167 18ZM5.95833 11C7.10417 11 8.07813 10.5625 8.88021 9.6875C9.68229 8.8125 10.0833 7.75 10.0833 6.5C10.0833 5.25 9.68229 4.1875 8.88021 3.3125C8.07813 2.4375 7.10417 2 5.95833 2C4.8125 2 3.83854 2.4375 3.03646 3.3125C2.23438 4.1875 1.83333 5.25 1.83333 6.5C1.83333 7.75 2.23438 8.8125 3.03646 9.6875C3.83854 10.5625 4.8125 11 5.95833 11Z" fill="black"/>
</svg>
