<svg width="23" height="23" viewBox="0 0 23 23" fill="none" xmlns="http://www.w3.org/2000/svg">
<path d="M1.35913 1.20605H3.58135L4.0258 3.42828M4.0258 3.42828H21.3591L16.9147 12.3172H5.80358M4.0258 3.42828L5.80358 12.3172M5.80358 12.3172L3.2558 14.8649C2.5558 15.5649 3.05135 16.7616 4.04135 16.7616H16.9147M16.9147 16.7616C16.3253 16.7616 15.7601 16.9957 15.3433 17.4125C14.9266 17.8292 14.6925 18.3945 14.6925 18.9838C14.6925 19.5732 14.9266 20.1384 15.3433 20.5552C15.7601 20.9719 16.3253 21.2061 16.9147 21.2061C17.5041 21.2061 18.0693 20.9719 18.486 20.5552C18.9028 20.1384 19.1369 19.5732 19.1369 18.9838C19.1369 18.3945 18.9028 17.8292 18.486 17.4125C18.0693 16.9957 17.5041 16.7616 16.9147 16.7616ZM8.0258 18.9838C8.0258 19.5732 7.79167 20.1384 7.37492 20.5552C6.95818 20.9719 6.39295 21.2061 5.80358 21.2061C5.21421 21.2061 4.64897 20.9719 4.23223 20.5552C3.81548 20.1384 3.58135 19.5732 3.58135 18.9838C3.58135 18.3945 3.81548 17.8292 4.23223 17.4125C4.64897 16.9957 5.21421 16.7616 5.80358 16.7616C6.39295 16.7616 6.95818 16.9957 7.37492 17.4125C7.79167 17.8292 8.0258 18.3945 8.0258 18.9838Z" stroke="black" stroke-width="2" stroke-linecap="round" stroke-linejoin="round"/>
</svg>
