<svg width="35" height="36" viewBox="0 0 35 36" fill="none" xmlns="http://www.w3.org/2000/svg">
<g clip-path="url(#clip0_3637_1668)">
<path d="M19.057 1.09132C19.2601 1.09129 19.4587 1.15135 19.6277 1.26393L20.1556 1.61535L20.5185 1.85734C20.6876 1.9699 20.8861 2.02997 21.0893 2.02997C21.2924 2.02997 21.491 1.9699 21.66 1.85734L22.5508 1.26393C22.7198 1.15137 22.9184 1.09131 23.1215 1.09131C23.3246 1.09131 23.5232 1.15137 23.6922 1.26393L24.5277 1.82068C24.7096 1.94236 24.9256 2.00289 25.1443 1.99345C25.363 1.98402 25.573 1.90512 25.7437 1.76822L26.3037 1.32034C26.4647 1.19174 26.6607 1.11443 26.8663 1.09844C27.0718 1.08245 27.2774 1.12851 27.4564 1.23065L28.6685 1.92278C28.8344 2.01745 29.0234 2.06413 29.2143 2.05759" stroke="#AD0506" stroke-width="2" stroke-linecap="round" stroke-linejoin="round"/>
<path d="M34.4355 21.3982H23.5968V17.6753L17.8388 21.3982V17.6753L12.0807 21.3982V17.6753L6.32264 21.3982V17.6753L0.564575 21.3982V34.9361H34.4355V21.3982Z" stroke="#AD0506" stroke-width="2" stroke-linecap="round" stroke-linejoin="round"/>
<path d="M30.9147 4.47559H27.5276L26.1727 21.398H32.2695L30.9147 4.47559Z" stroke="#AD0506" stroke-width="2" stroke-linecap="round" stroke-linejoin="round"/>
<path d="M23.7097 27.0391H19.1936V34.9362H23.7097V27.0391Z" stroke="#AD0506" stroke-width="2" stroke-linecap="round" stroke-linejoin="round"/>
<path d="M15.6372 27.8286H13.2662V31.5515H15.6372V27.8286Z" stroke="#AD0506" stroke-width="2" stroke-linecap="round" stroke-linejoin="round"/>
<path d="M10.8953 27.8286H8.52429V31.5515H10.8953V27.8286Z" stroke="#AD0506" stroke-width="2" stroke-linecap="round" stroke-linejoin="round"/>
<path d="M6.15332 27.8286H3.78235V31.5515H6.15332V27.8286Z" stroke="#AD0506" stroke-width="2" stroke-linecap="round" stroke-linejoin="round"/>
</g>
<defs>
<clipPath id="clip0_3637_1668">
<rect width="35" height="35" fill="white" transform="translate(0 0.5)"/>
</clipPath>
</defs>
</svg>
