<svg width="30" height="30" viewBox="0 0 30 30" fill="none" xmlns="http://www.w3.org/2000/svg">
<g clip-path="url(#clip0_3745_807)">
<path d="M0.59183 15.0997C0.591113 17.6787 1.26793 20.1969 2.5549 22.4165L0.46875 30.0002L8.26367 27.9653C10.4197 29.1338 12.8353 29.7461 15.29 29.7463H15.2965C23.4 29.7463 29.9965 23.1809 30 15.1112C30.0016 11.2009 28.4734 7.52386 25.6971 4.75746C22.9212 1.9913 19.2294 0.467117 15.2959 0.465332C7.19132 0.465332 0.595296 7.03036 0.59195 15.0997" fill="url(#paint0_linear_3745_807)"/>
<path d="M0.125391 14.8158C0.12457 17.4271 0.812109 19.9763 2.11922 22.2233L0 29.9008L7.91848 27.8407C10.1003 29.021 12.5568 29.6434 15.0564 29.6443H15.0628C23.295 29.6443 29.9965 22.9969 30 14.8277C30.0014 10.8686 28.4489 7.1457 25.6289 4.34512C22.8086 1.54488 19.0586 0.00162791 15.0628 0C6.82922 0 0.128672 6.64651 0.125391 14.8158ZM4.84113 21.8363L4.54547 21.3706C3.30258 19.4097 2.64656 17.1436 2.6475 14.8167C2.65008 8.02663 8.2193 2.50233 15.0675 2.50233C18.3839 2.50372 21.5006 3.78651 23.8448 6.11395C26.1889 8.44163 27.4788 11.5358 27.478 14.8267C27.475 21.6169 21.9056 27.1419 15.0628 27.1419H15.0579C12.8298 27.1407 10.6446 26.547 8.73891 25.425L8.28539 25.1581L3.58641 26.3806L4.84113 21.8363Z" fill="url(#paint1_linear_3745_807)"/>
<path d="M11.3294 8.62165C11.0498 8.00502 10.7556 7.99257 10.4897 7.98176C10.2719 7.97246 10.023 7.97316 9.77434 7.97316C9.52543 7.97316 9.12102 8.06606 8.77918 8.43641C8.437 8.80711 7.47278 9.70292 7.47278 11.5249C7.47278 13.3469 8.81024 15.1078 8.99668 15.3551C9.18336 15.602 11.5787 19.4606 15.3723 20.945C18.5251 22.1786 19.1667 21.9333 19.8509 21.8714C20.5353 21.8098 22.0592 20.9758 22.3701 20.1111C22.6813 19.2464 22.6813 18.5052 22.588 18.3504C22.4947 18.1961 22.2458 18.1034 21.8725 17.9183C21.4993 17.7332 19.6643 16.8371 19.3222 16.7135C18.98 16.59 18.7312 16.5284 18.4823 16.8992C18.2334 17.2694 17.5187 18.1034 17.3008 18.3504C17.0832 18.5979 16.8654 18.6287 16.4922 18.4435C16.1188 18.2577 14.9168 17.8671 13.4907 16.6056C12.3812 15.624 11.6321 14.4118 11.4144 14.0409C11.1966 13.6707 11.3911 13.47 11.5782 13.2855C11.7459 13.1196 11.9516 12.853 12.1384 12.6369C12.3245 12.4206 12.3866 12.2663 12.511 12.0193C12.6356 11.7721 12.5732 11.5558 12.4801 11.3706C12.3866 11.1854 11.6613 9.35385 11.3294 8.62165Z" fill="white"/>
</g>
<defs>
<linearGradient id="paint0_linear_3745_807" x1="1477.03" y1="2953.95" x2="1477.03" y2="0.465332" gradientUnits="userSpaceOnUse">
<stop stop-color="#1FAF38"/>
<stop offset="1" stop-color="#60D669"/>
</linearGradient>
<linearGradient id="paint1_linear_3745_807" x1="1500" y1="2990.08" x2="1500" y2="0" gradientUnits="userSpaceOnUse">
<stop stop-color="#F9F9F9"/>
<stop offset="1" stop-color="white"/>
</linearGradient>
<clipPath id="clip0_3745_807">
<rect width="30" height="30" fill="white"/>
</clipPath>
</defs>
</svg>
